<?xml version="1.0" encoding="UTF-8"?>
<!DOCTYPE svg PUBLIC "-//W3C//DTD SVG 1.1//EN" "http://www.w3.org/Graphics/SVG/1.1/DTD/svg11.dtd">
<svg xmlns="http://www.w3.org/2000/svg" version="1.1" width="500px" height="500px" style="shape-rendering:geometricPrecision; text-rendering:geometricPrecision; image-rendering:optimizeQuality; fill-rule:evenodd; clip-rule:evenodd" xmlns:xlink="http://www.w3.org/1999/xlink">
<g><path style="opacity:0.994" fill="#552618" d="M 137.5,129.5 C 138.578,126.565 138.578,123.898 137.5,121.5C 138.59,119.638 139.59,117.805 140.5,116C 139.747,114.513 138.914,114.346 138,115.5C 136.134,111.352 134.634,111.519 133.5,116C 134.056,116.383 134.389,116.883 134.5,117.5C 135.703,118.943 136.203,120.609 136,122.5C 133.26,121.718 130.426,121.218 127.5,121C 127.966,119.701 127.966,118.201 127.5,116.5C 126.127,116.657 124.793,116.49 123.5,116C 124.696,115.346 124.696,114.846 123.5,114.5C 122.817,114.863 122.15,115.196 121.5,115.5C 128.397,104.983 135.564,104.983 143,115.5C 144.694,121.614 142.861,126.281 137.5,129.5 Z M 134.5,117.5 C 134.5,118.5 134.5,119.5 134.5,120.5C 129.599,120.828 128.765,119.494 132,116.5C 132.671,117.252 133.504,117.586 134.5,117.5 Z"/></g>
<g><path style="opacity:0.996" fill="#310d00" d="M 341.5,112.5 C 345.298,111.517 349.298,111.183 353.5,111.5C 353.5,154.5 353.5,197.5 353.5,240.5C 350.813,240.664 348.146,240.497 345.5,240C 343.859,238.871 342.859,237.371 342.5,235.5C 342.832,194.33 342.499,153.33 341.5,112.5 Z"/></g>
<g><path style="opacity:1" fill="#491d11" d="M 289.5,108.5 C 302.361,108.569 306.528,114.569 302,126.5C 298.257,130.259 293.757,131.426 288.5,130C 281.902,125.047 280.735,118.88 285,111.5C 286.409,110.219 287.909,109.219 289.5,108.5 Z"/></g>
<g><path style="opacity:0.996" fill="#43190c" d="M 383.5,127.5 C 377.523,129.074 371.857,128.407 366.5,125.5C 363.016,116.137 366.183,110.137 376,107.5C 386.243,110 389.576,116 386,125.5C 385.292,126.381 384.458,127.047 383.5,127.5 Z"/></g>
<g><path style="opacity:0.996" fill="#391204" d="M 313.5,110.5 C 317.167,110.5 320.833,110.5 324.5,110.5C 325.167,138.5 325.833,166.5 326.5,194.5C 326.333,209.504 326.5,224.504 327,239.5C 329.392,247.392 334.558,252.392 342.5,254.5C 343.964,255.16 345.631,255.493 347.5,255.5C 350.205,255.684 352.538,255.017 354.5,253.5C 358.603,254.231 362.103,253.231 365,250.5C 366.84,251.833 367.34,251.666 366.5,250C 367.466,248.322 368.799,247.655 370.5,248C 372.91,251.242 372.577,253.908 369.5,256C 369.833,256.333 370.167,256.667 370.5,257C 369.007,258.368 367.507,258.535 366,257.5C 365.506,259.134 365.34,260.801 365.5,262.5C 364.097,263.931 362.431,265.098 360.5,266C 359.207,266.49 357.873,266.657 356.5,266.5C 342.948,268.148 331.115,264.481 321,255.5C 319.153,251.807 317.32,248.14 315.5,244.5C 313.951,199.882 313.284,155.215 313.5,110.5 Z"/></g>
<g><path style="opacity:0.943" fill="#3c1304" d="M 137.5,129.5 C 134.778,131.673 131.778,132.006 128.5,130.5C 124.253,126.343 121.92,121.343 121.5,115.5C 122.15,115.196 122.817,114.863 123.5,114.5C 124.696,114.846 124.696,115.346 123.5,116C 124.793,116.49 126.127,116.657 127.5,116.5C 127.966,118.201 127.966,119.701 127.5,121C 130.426,121.218 133.26,121.718 136,122.5C 136.203,120.609 135.703,118.943 134.5,117.5C 134.389,116.883 134.056,116.383 133.5,116C 134.634,111.519 136.134,111.352 138,115.5C 138.914,114.346 139.747,114.513 140.5,116C 139.59,117.805 138.59,119.638 137.5,121.5C 138.578,123.898 138.578,126.565 137.5,129.5 Z M 134.5,117.5 C 133.504,117.586 132.671,117.252 132,116.5C 128.765,119.494 129.599,120.828 134.5,120.5C 134.5,119.5 134.5,118.5 134.5,117.5 Z"/></g>
<g><path style="opacity:0.941" fill="#9f5a3d" d="M 121.5,115.5 C 121.92,121.343 124.253,126.343 128.5,130.5C 121.903,127.299 119.57,122.299 121.5,115.5 Z"/></g>
<g><path style="opacity:0.173" fill="#f2b490" d="M 154.5,110.5 C 154.5,114.167 154.5,117.833 154.5,121.5C 173.989,122.833 193.822,123.5 214,123.5C 234.003,123.5 253.836,123.167 273.5,122.5C 273.5,118.5 273.5,114.5 273.5,110.5C 274.486,114.97 274.819,119.637 274.5,124.5C 234.167,124.5 193.833,124.5 153.5,124.5C 153.181,119.637 153.514,114.97 154.5,110.5 Z"/></g>
<g><path style="opacity:0.791" fill="#7e3b1e" d="M 154.5,121.5 C 194.172,121.353 233.839,121.686 273.5,122.5C 253.836,123.167 234.003,123.5 214,123.5C 193.822,123.5 173.989,122.833 154.5,121.5 Z"/></g>
<g><path style="opacity:0.999" fill="#371205" d="M 154.5,110.5 C 194.167,110.5 233.833,110.5 273.5,110.5C 273.5,114.5 273.5,118.5 273.5,122.5C 233.839,121.686 194.172,121.353 154.5,121.5C 154.5,117.833 154.5,114.167 154.5,110.5 Z"/></g>
<g><path style="opacity:0.816" fill="#8f4c34" d="M 366.5,125.5 C 371.857,128.407 377.523,129.074 383.5,127.5C 380.103,130.392 376.103,131.226 371.5,130C 369.382,128.951 367.716,127.451 366.5,125.5 Z"/></g>
<g><path style="opacity:0.54" fill="#945438" d="M 353.5,110.5 C 353.5,110.833 353.5,111.167 353.5,111.5C 349.298,111.183 345.298,111.517 341.5,112.5C 341.832,148.671 341.498,184.671 340.5,220.5C 340.5,183.833 340.5,147.167 340.5,110.5C 344.833,110.5 349.167,110.5 353.5,110.5 Z"/></g>
<g><path style="opacity:0.998" fill="#3e160a" d="M 272.5,143.5 C 271.596,144.209 271.263,145.209 271.5,146.5C 238.992,146.761 206.492,146.428 174,145.5C 169.111,145.511 164.277,146.011 159.5,147C 158.027,147.71 157.36,148.876 157.5,150.5C 157.167,150.5 156.833,150.5 156.5,150.5C 155.85,150.196 155.183,149.863 154.5,149.5C 149.065,151.852 145.732,155.852 144.5,161.5C 143.325,161.281 142.325,161.614 141.5,162.5C 142.127,163.417 142.461,164.417 142.5,165.5C 137.843,186.022 145.51,199.522 165.5,206C 187.004,206.168 208.337,206.668 229.5,207.5C 211.497,207.333 193.497,207.5 175.5,208C 174.284,209.594 172.951,211.094 171.5,212.5C 172.376,213.251 173.376,213.751 174.5,214C 173.167,214.667 173.167,215.333 174.5,216C 170.848,216.499 167.182,216.665 163.5,216.5C 138.016,210.152 126.849,193.819 130,167.5C 130.903,166.299 132.069,165.465 133.5,165C 132.833,164.667 132.167,164.333 131.5,164C 131.762,160.629 132.428,157.129 133.5,153.5C 139.201,143.318 147.867,137.152 159.5,135C 197.101,134.537 234.601,134.37 272,134.5C 273.815,137.384 273.982,140.384 272.5,143.5 Z"/></g>
<g><path style="opacity:0.995" fill="#340e00" d="M 298.5,139.5 C 298.5,181.167 298.5,222.833 298.5,264.5C 296.5,264.5 294.5,264.5 292.5,264.5C 291.081,263.549 289.415,263.216 287.5,263.5C 287.832,223.996 287.499,184.663 286.5,145.5C 286.5,143.5 286.5,141.5 286.5,139.5C 290.5,139.5 294.5,139.5 298.5,139.5 Z"/></g>
<g><path style="opacity:0.174" fill="#8d4b2d" d="M 324.5,110.5 C 324.56,109.957 324.893,109.624 325.5,109.5C 326.5,137.825 326.833,166.159 326.5,194.5C 325.833,166.5 325.167,138.5 324.5,110.5 Z"/></g>
<g><path style="opacity:0.149" fill="#c6906d" d="M 298.5,139.5 C 294.5,139.5 290.5,139.5 286.5,139.5C 286.5,141.5 286.5,143.5 286.5,145.5C 285.532,143.393 285.198,141.059 285.5,138.5C 290.032,138.182 294.366,138.515 298.5,139.5 Z"/></g>
<g><path style="opacity:1" fill="#67240e" d="M 341.5,112.5 C 342.499,153.33 342.832,194.33 342.5,235.5C 341.833,234.167 341.167,232.833 340.5,231.5C 340.5,227.833 340.5,224.167 340.5,220.5C 341.498,184.671 341.832,148.671 341.5,112.5 Z"/></g>
<g><path style="opacity:1" fill="#320e00" d="M 369.5,138.5 C 373.5,138.5 377.5,138.5 381.5,138.5C 381.5,172.833 381.5,207.167 381.5,241.5C 381.405,243.786 380.738,245.786 379.5,247.5C 374.748,249.251 372.248,247.584 372,242.5C 372.424,244.615 373.591,245.448 375.5,245C 373.299,241.932 371.799,238.766 371,235.5C 370.812,203.137 370.312,170.804 369.5,138.5 Z"/></g>
<g><path style="opacity:0.911" fill="#a05d42" d="M 272.5,143.5 C 272.5,145.5 272.5,147.5 272.5,149.5C 240.665,148.951 208.831,148.285 177,147.5C 170.273,147.281 163.773,148.281 157.5,150.5C 157.36,148.876 158.027,147.71 159.5,147C 164.277,146.011 169.111,145.511 174,145.5C 206.492,146.428 238.992,146.761 271.5,146.5C 271.263,145.209 271.596,144.209 272.5,143.5 Z"/></g>
<g><path style="opacity:0.925" fill="#854a34" d="M 156.5,150.5 C 150.45,154.217 145.783,159.217 142.5,165.5C 142.461,164.417 142.127,163.417 141.5,162.5C 142.325,161.614 143.325,161.281 144.5,161.5C 145.732,155.852 149.065,151.852 154.5,149.5C 155.183,149.863 155.85,150.196 156.5,150.5 Z"/></g>
<g><path style="opacity:0.998" fill="#3a1305" d="M 258.5,159.5 C 262.97,160.486 267.637,160.819 272.5,160.5C 272.5,164.167 272.5,167.833 272.5,171.5C 252.165,171.268 231.831,170.934 211.5,170.5C 197.829,170.333 184.163,170.5 170.5,171C 169.748,171.671 169.414,172.504 169.5,173.5C 166.833,175.5 166.833,177.5 169.5,179.5C 169.5,179.833 169.5,180.167 169.5,180.5C 170.122,182.335 171.456,183.502 173.5,184C 194.164,184.5 214.831,184.667 235.5,184.5C 238.206,184.575 240.873,184.908 243.5,185.5C 255.294,189.289 263.627,196.956 268.5,208.5C 274.191,222.875 273.358,236.875 266,250.5C 263.715,253.432 261.215,256.098 258.5,258.5C 254.122,259.961 249.788,261.628 245.5,263.5C 247.385,261.947 248.385,259.947 248.5,257.5C 249.873,257.657 251.207,257.49 252.5,257C 251.833,256.667 251.167,256.333 250.5,256C 252.563,254.428 253.229,252.595 252.5,250.5C 251.522,250.977 250.689,251.643 250,252.5C 249.764,250.881 248.931,249.881 247.5,249.5C 252.824,244.51 256.491,238.51 258.5,231.5C 261.317,215.067 254.984,203.233 239.5,196C 237.866,195.506 236.199,195.34 234.5,195.5C 214.337,194.668 194.004,194.168 173.5,194C 171.753,193.648 170.086,193.148 168.5,192.5C 165.628,191.474 163.128,189.808 161,187.5C 158.288,183.528 156.454,179.194 155.5,174.5C 156.266,165.234 161.266,160.068 170.5,159C 199.828,159.155 229.161,159.322 258.5,159.5 Z"/></g>
<g><path style="opacity:0.949" fill="#b26e56" d="M 211.5,170.5 C 222.964,172.159 234.631,173.159 246.5,173.5C 220.79,172.971 195.123,172.971 169.5,173.5C 169.414,172.504 169.748,171.671 170.5,171C 184.163,170.5 197.829,170.333 211.5,170.5 Z"/></g>
<g><path style="opacity:0.91" fill="#823b22" d="M 258.5,159.5 C 263.5,159.5 268.5,159.5 273.5,159.5C 273.8,164.099 273.467,168.599 272.5,173C 263.84,173.5 255.173,173.666 246.5,173.5C 234.631,173.159 222.964,172.159 211.5,170.5C 231.831,170.934 252.165,171.268 272.5,171.5C 272.5,167.833 272.5,164.167 272.5,160.5C 267.637,160.819 262.97,160.486 258.5,159.5 Z"/></g>
<g><path style="opacity:0.043" fill="#fab99d" d="M 368.5,138.5 C 372.97,137.514 377.637,137.181 382.5,137.5C 382.832,172.337 382.498,207.004 381.5,241.5C 381.5,207.167 381.5,172.833 381.5,138.5C 377.5,138.5 373.5,138.5 369.5,138.5C 369.167,138.5 368.833,138.5 368.5,138.5 Z"/></g>
<g><path style="opacity:0.502" fill="#af775d" d="M 169.5,173.5 C 168.167,175.5 168.167,177.5 169.5,179.5C 166.833,177.5 166.833,175.5 169.5,173.5 Z"/></g>
<g><path style="opacity:0.369" fill="#733115" d="M 169.5,180.5 C 171.14,181.32 172.807,182.153 174.5,183C 194.831,183.5 215.164,183.667 235.5,183.5C 235.5,183.833 235.5,184.167 235.5,184.5C 214.831,184.667 194.164,184.5 173.5,184C 171.456,183.502 170.122,182.335 169.5,180.5 Z"/></g>
<g><path style="opacity:0.053" fill="#e7ad93" d="M 235.5,184.5 C 235.5,184.167 235.5,183.833 235.5,183.5C 238.553,183.111 241.22,183.777 243.5,185.5C 240.873,184.908 238.206,184.575 235.5,184.5 Z"/></g>
<g><path style="opacity:0.29" fill="#b07052" d="M 298.5,139.5 C 299.499,181.33 299.832,223.33 299.5,265.5C 295.833,265.5 292.167,265.5 288.5,265.5C 289.568,264.566 290.901,264.232 292.5,264.5C 294.5,264.5 296.5,264.5 298.5,264.5C 298.5,222.833 298.5,181.167 298.5,139.5 Z"/></g>
<g><path style="opacity:0.973" fill="#9c593b" d="M 155.5,174.5 C 156.454,179.194 158.288,183.528 161,187.5C 163.128,189.808 165.628,191.474 168.5,192.5C 168.557,193.609 168.89,194.609 169.5,195.5C 159.007,192.064 154.341,185.064 155.5,174.5 Z"/></g>
<g><path style="opacity:0.937" fill="#8c402c" d="M 168.5,192.5 C 170.086,193.148 171.753,193.648 173.5,194C 194.004,194.168 214.337,194.668 234.5,195.5C 227.5,195.5 220.5,195.5 213.5,195.5C 199.021,196.714 184.354,196.714 169.5,195.5C 168.89,194.609 168.557,193.609 168.5,192.5 Z"/></g>
<g><path style="opacity:0.553" fill="#9d5c3c" d="M 213.5,195.5 C 220.5,195.5 227.5,195.5 234.5,195.5C 236.199,195.34 237.866,195.506 239.5,196C 254.984,203.233 261.317,215.067 258.5,231.5C 258.713,215.751 251.713,204.584 237.5,198C 229.363,197.055 221.363,196.222 213.5,195.5 Z"/></g>
<g><path style="opacity:0.999" fill="#3d1508" d="M 229.5,207.5 C 241.124,211.408 245.458,219.408 242.5,231.5C 239.52,233.073 237.186,235.406 235.5,238.5C 234.205,239.098 232.872,239.598 231.5,240C 195.168,240.5 158.835,240.667 122.5,240.5C 122.5,239.5 122.5,238.5 122.5,237.5C 122.296,234.455 122.296,231.621 122.5,229C 152.5,228.333 182.5,228.333 212.5,229C 216.039,229.282 219.539,229.782 223,230.5C 226.569,229.758 229.069,227.758 230.5,224.5C 230.749,220.886 228.749,218.719 224.5,218C 203.996,217.832 183.663,217.332 163.5,216.5C 167.182,216.665 170.848,216.499 174.5,216C 173.167,215.333 173.167,214.667 174.5,214C 173.376,213.751 172.376,213.251 171.5,212.5C 172.951,211.094 174.284,209.594 175.5,208C 193.497,207.5 211.497,207.333 229.5,207.5 Z"/></g>
<g><path style="opacity:0.855" fill="#975437" d="M 133.5,153.5 C 132.428,157.129 131.762,160.629 131.5,164C 132.167,164.333 132.833,164.667 133.5,165C 132.069,165.465 130.903,166.299 130,167.5C 126.849,193.819 138.016,210.152 163.5,216.5C 183.663,217.332 203.996,217.832 224.5,218C 228.749,218.719 230.749,220.886 230.5,224.5C 228.634,221.73 225.968,220.23 222.5,220C 202.5,219.667 182.5,219.333 162.5,219C 134.119,211.094 122.953,192.594 129,163.5C 129.844,159.771 131.344,156.437 133.5,153.5 Z"/></g>
<g><path style="opacity:0.982" fill="#99583d" d="M 313.5,110.5 C 313.284,155.215 313.951,199.882 315.5,244.5C 314.833,244.5 314.167,244.5 313.5,244.5C 312.17,199.736 312.17,155.069 313.5,110.5 Z"/></g>
<g><path style="opacity:0.994" fill="#5a2515" d="M 368.5,138.5 C 368.833,138.5 369.167,138.5 369.5,138.5C 370.312,170.804 370.812,203.137 371,235.5C 371.799,238.766 373.299,241.932 375.5,245C 373.591,245.448 372.424,244.615 372,242.5C 372.248,247.584 374.748,249.251 379.5,247.5C 376.217,253.783 371.55,258.783 365.5,262.5C 365.34,260.801 365.506,259.134 366,257.5C 367.507,258.535 369.007,258.368 370.5,257C 370.167,256.667 369.833,256.333 369.5,256C 372.577,253.908 372.91,251.242 370.5,248C 368.799,247.655 367.466,248.322 366.5,250C 367.34,251.666 366.84,251.833 365,250.5C 362.103,253.231 358.603,254.231 354.5,253.5C 360.787,250.711 365.287,246.044 368,239.5C 368.5,205.835 368.667,172.168 368.5,138.5 Z"/></g>
<g><path style="opacity:0.973" fill="#7d3922" d="M 286.5,145.5 C 287.499,184.663 287.832,223.996 287.5,263.5C 289.415,263.216 291.081,263.549 292.5,264.5C 290.901,264.232 289.568,264.566 288.5,265.5C 287.434,266.692 286.601,266.359 286,264.5C 285.445,224.78 285.612,185.113 286.5,145.5 Z"/></g>
<g><path style="opacity:0.867" fill="#955035" d="M 242.5,231.5 C 238.883,239.904 232.383,243.904 223,243.5C 189.18,242.531 155.346,242.198 121.5,242.5C 121.216,240.585 121.549,238.919 122.5,237.5C 122.5,238.5 122.5,239.5 122.5,240.5C 158.835,240.667 195.168,240.5 231.5,240C 232.872,239.598 234.205,239.098 235.5,238.5C 237.186,235.406 239.52,233.073 242.5,231.5 Z"/></g>
<g><path style="opacity:0.533" fill="#be7d60" d="M 353.5,110.5 C 354.831,154.002 354.831,197.669 353.5,241.5C 344.094,244.502 339.761,241.169 340.5,231.5C 341.167,232.833 341.833,234.167 342.5,235.5C 342.859,237.371 343.859,238.871 345.5,240C 348.146,240.497 350.813,240.664 353.5,240.5C 353.5,197.5 353.5,154.5 353.5,111.5C 353.5,111.167 353.5,110.833 353.5,110.5 Z"/></g>
<g><path style="opacity:0.133" fill="#d2a08d" d="M 245.5,250.5 C 244.713,252.104 243.38,252.771 241.5,252.5C 242.514,251.326 243.847,250.66 245.5,250.5 Z"/></g>
<g><path style="opacity:0.993" fill="#40190e" d="M 247.5,249.5 C 248.931,249.881 249.764,250.881 250,252.5C 250.689,251.643 251.522,250.977 252.5,250.5C 253.229,252.595 252.563,254.428 250.5,256C 251.167,256.333 251.833,256.667 252.5,257C 251.207,257.49 249.873,257.657 248.5,257.5C 248.385,259.947 247.385,261.947 245.5,263.5C 238.308,265.041 230.975,265.708 223.5,265.5C 190.265,264.958 157.099,264.291 124,263.5C 123.722,264.416 123.222,265.082 122.5,265.5C 122.5,261.167 122.5,256.833 122.5,252.5C 162.209,252.952 201.876,252.952 241.5,252.5C 243.38,252.771 244.713,252.104 245.5,250.5C 245.842,249.662 246.508,249.328 247.5,249.5 Z"/></g>
<g><path style="opacity:0.565" fill="#b7745b" d="M 354.5,253.5 C 352.538,255.017 350.205,255.684 347.5,255.5C 345.631,255.493 343.964,255.16 342.5,254.5C 346.548,254.605 350.548,254.272 354.5,253.5 Z"/></g>
<g><path style="opacity:0.984" fill="#9a573a" d="M 313.5,244.5 C 314.167,244.5 314.833,244.5 315.5,244.5C 317.32,248.14 319.153,251.807 321,255.5C 331.115,264.481 342.948,268.148 356.5,266.5C 340.617,270.895 327.45,266.562 317,253.5C 315.378,250.678 314.211,247.678 313.5,244.5 Z"/></g>
<g><path style="opacity:0.644" fill="#8c472b" d="M 258.5,258.5 C 250.627,265.004 241.461,268.337 231,268.5C 194.69,267.009 158.524,266.009 122.5,265.5C 123.222,265.082 123.722,264.416 124,263.5C 157.099,264.291 190.265,264.958 223.5,265.5C 230.975,265.708 238.308,265.041 245.5,263.5C 249.788,261.628 254.122,259.961 258.5,258.5 Z"/></g>
<g><path style="opacity:0.987" fill="#4d2316" d="M 372.5,273.5 C 385.853,272.846 390.519,278.846 386.5,291.5C 381.038,297.266 375.038,297.933 368.5,293.5C 362.33,285.36 363.664,278.693 372.5,273.5 Z M 375.5,282.5 C 379.541,282.502 380.208,283.835 377.5,286.5C 375.204,285.632 374.537,284.298 375.5,282.5 Z"/></g>
<g><path style="opacity:0.984" fill="#451c10" d="M 142.5,282.5 C 141.424,285.734 140.757,289.068 140.5,292.5C 135.751,297.257 130.417,297.757 124.5,294C 118.712,286.75 119.379,280.084 126.5,274C 134.8,271.499 140.134,274.332 142.5,282.5 Z M 130.5,283.5 C 134.161,283.426 134.828,284.426 132.5,286.5C 131.081,285.995 130.415,284.995 130.5,283.5 Z"/></g>
<g><path style="opacity:0.999" fill="#3b1203" d="M 299.5,276.5 C 299.5,281.5 299.5,286.5 299.5,291.5C 298.209,291.263 297.209,291.596 296.5,292.5C 295.833,292.5 295.167,292.5 294.5,292.5C 292.735,291.539 290.735,291.205 288.5,291.5C 287.092,287.314 286.425,282.981 286.5,278.5C 290.024,272.872 294.357,272.205 299.5,276.5 Z"/></g>
<g><path style="opacity:0.997" fill="#330e00" d="M 244.5,279.5 C 244.5,283.5 244.5,287.5 244.5,291.5C 214.519,290.782 184.519,290.115 154.5,289.5C 154.5,286.167 154.5,282.833 154.5,279.5C 184.5,279.5 214.5,279.5 244.5,279.5 Z"/></g>
<g><path style="opacity:0.987" fill="#411b0f" d="M 354.5,291.5 C 340.833,291.5 327.167,291.5 313.5,291.5C 313.5,287.5 313.5,283.5 313.5,279.5C 327.009,278.319 340.676,278.319 354.5,279.5C 354.5,283.5 354.5,287.5 354.5,291.5 Z"/></g>
<g><path style="opacity:1" fill="#4b1d0e" d="M 262.5,273.5 C 272.045,273.881 276.545,278.881 276,288.5C 272.483,296.01 266.983,298.01 259.5,294.5C 251.939,285.947 252.939,278.947 262.5,273.5 Z"/></g>
<g><path style="opacity:0.471" fill="#995434" d="M 299.5,276.5 C 300.488,281.64 300.821,286.974 300.5,292.5C 299.167,292.5 297.833,292.5 296.5,292.5C 297.209,291.596 298.209,291.263 299.5,291.5C 299.5,286.5 299.5,281.5 299.5,276.5 Z"/></g>
<g><path style="opacity:0.99" fill="#87543f" d="M 142.5,282.5 C 143.622,284.288 143.789,286.288 143,288.5C 142.066,289.858 141.232,291.192 140.5,292.5C 140.757,289.068 141.424,285.734 142.5,282.5 Z"/></g>
<g><path style="opacity:0.63" fill="#9d5c46" d="M 244.5,279.5 C 214.5,279.5 184.5,279.5 154.5,279.5C 154.5,282.833 154.5,286.167 154.5,289.5C 184.519,290.115 214.519,290.782 244.5,291.5C 214.345,292.449 184.011,292.782 153.5,292.5C 153.381,287.788 153.381,283.288 153.5,279C 184.003,278.169 214.336,278.336 244.5,279.5 Z"/></g>
<g><path style="opacity:0.353" fill="#a56548" d="M 286.5,278.5 C 286.425,282.981 287.092,287.314 288.5,291.5C 290.735,291.205 292.735,291.539 294.5,292.5C 291.881,292.768 289.381,292.435 287,291.5C 286.103,288.51 285.269,285.51 284.5,282.5C 284.994,280.974 285.661,279.641 286.5,278.5 Z"/></g>
<g><path style="opacity:0.086" fill="#df9d78" d="M 313.5,279.5 C 313.5,283.5 313.5,287.5 313.5,291.5C 327.167,291.5 340.833,291.5 354.5,291.5C 340.677,292.496 326.677,292.829 312.5,292.5C 312.182,287.968 312.515,283.634 313.5,279.5 Z"/></g>
<g><path style="opacity:0.122" fill="#f8bc9b" d="M 197.5,323.5 C 204.175,323.334 210.842,323.5 217.5,324C 218.416,324.278 219.082,324.778 219.5,325.5C 212.021,324.936 204.687,324.269 197.5,323.5 Z"/></g>
<g><path style="opacity:0.204" fill="#9c5d3a" d="M 240.5,327.5 C 239.522,327.189 238.855,326.522 238.5,325.5C 236.833,325.167 235.167,324.833 233.5,324.5C 231.36,324.556 229.694,325.223 228.5,326.5C 227.733,325.828 227.066,324.995 226.5,324C 230.871,323.172 235.205,323.339 239.5,324.5C 240.127,325.417 240.461,326.417 240.5,327.5 Z"/></g>
<g><path style="opacity:0.995" fill="#3b1408" d="M 197.5,323.5 C 204.687,324.269 212.021,324.936 219.5,325.5C 224.24,327.625 227.073,331.292 228,336.5C 229.754,344.674 227.254,351.007 220.5,355.5C 222.589,360.015 224.923,364.348 227.5,368.5C 227.859,370.371 228.859,371.871 230.5,373C 226.179,373.499 221.846,373.666 217.5,373.5C 214.027,368.22 211.36,362.553 209.5,356.5C 207.5,356.5 205.5,356.5 203.5,356.5C 203.5,360.167 203.5,363.833 203.5,367.5C 203.5,369.5 203.5,371.5 203.5,373.5C 200.167,373.5 196.833,373.5 193.5,373.5C 192.684,356.821 192.684,340.154 193.5,323.5C 194.833,323.5 196.167,323.5 197.5,323.5 Z M 212.5,334.5 C 217.078,335.786 218.578,338.786 217,343.5C 215.005,345.747 212.505,346.747 209.5,346.5C 207.5,346.5 205.5,346.5 203.5,346.5C 203.5,342.5 203.5,338.5 203.5,334.5C 206.5,334.5 209.5,334.5 212.5,334.5 Z"/></g>
<g><path style="opacity:0.99" fill="#471f13" d="M 327.5,363.5 C 329.158,364.181 330.825,365.015 332.5,366C 330.926,368.754 331.592,371.087 334.5,373C 333.944,373.383 333.611,373.883 333.5,374.5C 321.249,376.309 313.749,371.309 311,359.5C 310.618,347.755 310.451,336.089 310.5,324.5C 314.445,323.509 318.445,323.176 322.5,323.5C 322.333,335.505 322.5,347.505 323,359.5C 323.907,361.609 325.407,362.942 327.5,363.5 Z"/></g>
<g><path style="opacity:0.999" fill="#330e00" d="M 346.5,361.5 C 346.5,361.833 346.5,362.167 346.5,362.5C 345.06,360.612 343.393,359.945 341.5,360.5C 340.707,361.355 341.04,362.189 342.5,363C 341.167,363 339.833,363 338.5,363C 337.888,364.303 337.554,365.47 337.5,366.5C 336.572,364.665 335.406,364.332 334,365.5C 333.805,364.181 333.972,362.847 334.5,361.5C 335.931,361.119 336.764,360.119 337,358.5C 337.822,350.655 337.656,342.989 336.5,335.5C 335.167,334.5 335.167,333.5 336.5,332.5C 337.473,330.052 337.806,327.385 337.5,324.5C 340.5,324.5 343.5,324.5 346.5,324.5C 346.5,336.833 346.5,349.167 346.5,361.5 Z"/></g>
<g><path style="opacity:0.995" fill="#391306" d="M 380.5,323.5 C 383.5,323.5 386.5,323.5 389.5,323.5C 389.5,324.5 389.5,325.5 389.5,326.5C 388.504,341.991 388.17,357.658 388.5,373.5C 386.833,373.5 385.167,373.5 383.5,373.5C 376.118,365.262 369.618,356.262 364,346.5C 363.555,355.802 363.388,364.802 363.5,373.5C 360.167,373.5 356.833,373.5 353.5,373.5C 353.5,365.833 353.5,358.167 353.5,350.5C 353.5,346.5 353.5,342.5 353.5,338.5C 353.5,333.833 353.5,329.167 353.5,324.5C 355.167,324.5 356.833,324.5 358.5,324.5C 366.267,331.369 372.601,339.369 377.5,348.5C 377.783,349.289 378.283,349.956 379,350.5C 379.194,341.423 379.694,332.423 380.5,323.5 Z"/></g>
<g><path style="opacity:0.702" fill="#a46746" d="M 307.5,326.5 C 306.306,325.223 304.64,324.556 302.5,324.5C 300.833,324.833 299.167,325.167 297.5,325.5C 297.145,326.522 296.478,327.189 295.5,327.5C 295.167,327.5 294.833,327.5 294.5,327.5C 295.141,326.518 295.807,325.518 296.5,324.5C 300.511,323.773 304.511,323.107 308.5,322.5C 309.809,324.24 309.476,325.573 307.5,326.5 Z"/></g>
<g><path style="opacity:1" fill="#3a1509" d="M 307.5,326.5 C 306.331,329.511 304.664,332.178 302.5,334.5C 301.234,335.09 299.901,335.59 298.5,336C 299.993,337.156 299.826,337.99 298,338.5C 296.765,339.615 295.598,339.615 294.5,338.5C 294.245,336.657 294.078,334.657 294,332.5C 293.5,332 293,331.5 292.5,331C 294.078,329.86 295.744,329.36 297.5,329.5C 296.757,328.818 296.091,328.151 295.5,327.5C 296.478,327.189 297.145,326.522 297.5,325.5C 299.167,325.167 300.833,324.833 302.5,324.5C 304.64,324.556 306.306,325.223 307.5,326.5 Z"/></g>
<g><path style="opacity:0.343" fill="#a76543" d="M 283.5,339.5 C 282.513,334.695 282.179,329.695 282.5,324.5C 279.5,324.5 276.5,324.5 273.5,324.5C 273.823,330.69 273.49,336.69 272.5,342.5C 272.5,336.167 272.5,329.833 272.5,323.5C 276.167,323.5 279.833,323.5 283.5,323.5C 283.5,328.833 283.5,334.167 283.5,339.5 Z"/></g>
<g><path style="opacity:0.976" fill="#562b1d" d="M 294.5,327.5 C 294.833,327.5 295.167,327.5 295.5,327.5C 296.091,328.151 296.757,328.818 297.5,329.5C 295.744,329.36 294.078,329.86 292.5,331C 293,331.5 293.5,332 294,332.5C 294.078,334.657 294.245,336.657 294.5,338.5C 295.598,339.615 296.765,339.615 298,338.5C 299.826,337.99 299.993,337.156 298.5,336C 299.901,335.59 301.234,335.09 302.5,334.5C 300.213,338.452 297.546,342.119 294.5,345.5C 294.458,342.415 293.125,340.081 290.5,338.5C 289.108,339.605 287.941,340.939 287,342.5C 286.23,341.402 285.397,341.402 284.5,342.5C 287.092,336.976 290.425,331.976 294.5,327.5 Z"/></g>
<g><path style="opacity:0.329" fill="#844426" d="M 346.5,361.5 C 346.5,349.167 346.5,336.833 346.5,324.5C 343.5,324.5 340.5,324.5 337.5,324.5C 337.806,327.385 337.473,330.052 336.5,332.5C 336.5,329.5 336.5,326.5 336.5,323.5C 340.167,323.5 343.833,323.5 347.5,323.5C 347.829,336.344 347.495,349.011 346.5,361.5 Z"/></g>
<g><path style="opacity:0.173" fill="#bf836b" d="M 358.5,324.5 C 356.833,324.5 355.167,324.5 353.5,324.5C 353.5,329.167 353.5,333.833 353.5,338.5C 352.513,333.695 352.179,328.695 352.5,323.5C 354.735,323.205 356.735,323.539 358.5,324.5 Z"/></g>
<g><path style="opacity:0.405" fill="#ad6c4d" d="M 380.5,323.5 C 379.694,332.423 379.194,341.423 379,350.5C 378.283,349.956 377.783,349.289 377.5,348.5C 377.845,339.95 378.845,331.617 380.5,323.5 Z"/></g>
<g><path style="opacity:0.977" fill="#3c150a" d="M 156.5,324.5 C 166.833,324.5 177.167,324.5 187.5,324.5C 187.5,327.5 187.5,330.5 187.5,333.5C 180.5,333.5 173.5,333.5 166.5,333.5C 166.5,337.167 166.5,340.833 166.5,344.5C 172.833,344.5 179.167,344.5 185.5,344.5C 186.479,347.625 186.813,350.958 186.5,354.5C 180.167,354.5 173.833,354.5 167.5,354.5C 166.523,357.287 166.19,360.287 166.5,363.5C 173.833,363.5 181.167,363.5 188.5,363.5C 188.5,365.5 188.5,367.5 188.5,369.5C 188.5,370.833 188.5,372.167 188.5,373.5C 178.167,373.5 167.833,373.5 157.5,373.5C 157.784,371.585 157.451,369.919 156.5,368.5C 155.306,353.865 155.306,339.198 156.5,324.5 Z"/></g>
<g><path style="opacity:0.982" fill="#461d11" d="M 228.5,326.5 C 229.694,325.223 231.36,324.556 233.5,324.5C 235.167,324.833 236.833,325.167 238.5,325.5C 238.855,326.522 239.522,327.189 240.5,327.5C 243.436,334.976 245.77,342.643 247.5,350.5C 247.247,352.827 247.914,354.827 249.5,356.5C 250.429,355.311 250.762,353.978 250.5,352.5C 252.757,342.729 255.423,333.062 258.5,323.5C 262.5,323.5 266.5,323.5 270.5,323.5C 265.456,339.802 260.289,356.135 255,372.5C 253.475,373.72 251.641,374.387 249.5,374.5C 247.359,374.387 245.525,373.72 244,372.5C 238.504,357.177 233.337,341.844 228.5,326.5 Z"/></g>
<g><path style="opacity:0.671" fill="#7b3d20" d="M 212.5,334.5 C 209.5,334.5 206.5,334.5 203.5,334.5C 203.5,338.5 203.5,342.5 203.5,346.5C 205.5,346.5 207.5,346.5 209.5,346.5C 207.393,347.468 205.059,347.802 202.5,347.5C 202.5,342.833 202.5,338.167 202.5,333.5C 206.042,333.187 209.375,333.521 212.5,334.5 Z"/></g>
<g><path style="opacity:0.396" fill="#c38b72" d="M 119.5,335.5 C 119.616,338.86 119.949,342.193 120.5,345.5C 118.469,342.292 118.135,338.959 119.5,335.5 Z"/></g>
<g><path style="opacity:0.096" fill="#b47252" d="M 156.5,324.5 C 166.987,323.506 177.654,323.172 188.5,323.5C 188.5,327.167 188.5,330.833 188.5,334.5C 181.5,334.5 174.5,334.5 167.5,334.5C 167.5,337.5 167.5,340.5 167.5,343.5C 173.69,343.177 179.69,343.51 185.5,344.5C 179.167,344.5 172.833,344.5 166.5,344.5C 166.5,340.833 166.5,337.167 166.5,333.5C 173.5,333.5 180.5,333.5 187.5,333.5C 187.5,330.5 187.5,327.5 187.5,324.5C 177.167,324.5 166.833,324.5 156.5,324.5 Z"/></g>
<g><path style="opacity:0.939" fill="#381000" d="M 283.5,339.5 C 283.5,340.167 283.5,340.833 283.5,341.5C 282.167,351.833 282.167,362.167 283.5,372.5C 283.5,372.833 283.5,373.167 283.5,373.5C 279.833,373.5 276.167,373.5 272.5,373.5C 272.5,363.167 272.5,352.833 272.5,342.5C 273.49,336.69 273.823,330.69 273.5,324.5C 276.5,324.5 279.5,324.5 282.5,324.5C 282.179,329.695 282.513,334.695 283.5,339.5 Z"/></g>
<g><path style="opacity:0.578" fill="#6d3215" d="M 336.5,335.5 C 337.656,342.989 337.822,350.655 337,358.5C 336.764,360.119 335.931,361.119 334.5,361.5C 335.09,360.234 335.59,358.901 336,357.5C 336.5,350.174 336.666,342.841 336.5,335.5 Z"/></g>
<g><path style="opacity:0.999" fill="#451c10" d="M 143.5,337.5 C 143.426,335.589 142.426,334.422 140.5,334C 137.137,333.073 134.137,333.573 131.5,335.5C 130.065,338.328 130.731,340.661 133.5,342.5C 138.404,343.726 143.071,345.56 147.5,348C 152.69,353.652 153.857,360.152 151,367.5C 148.727,370.945 145.56,372.945 141.5,373.5C 136.988,373.851 132.655,373.185 128.5,371.5C 127.814,369.936 127.981,368.269 129,366.5C 130.185,368.844 132.018,369.677 134.5,369C 133.833,368.667 133.167,368.333 132.5,368C 132.519,366.479 132.852,364.979 133.5,363.5C 135.989,363.702 138.323,363.202 140.5,362C 142.007,361.163 142.507,359.996 142,358.5C 136.768,355.656 131.268,353.489 125.5,352C 122.979,350.442 121.312,348.275 120.5,345.5C 119.949,342.193 119.616,338.86 119.5,335.5C 121.714,327.134 127.214,323.134 136,323.5C 142.079,323.789 147.245,326.122 151.5,330.5C 152.326,331.451 152.492,332.451 152,333.5C 150.167,335.333 148.333,337.167 146.5,339C 145.002,339.585 144.002,339.085 143.5,337.5 Z"/></g>
<g><path style="opacity:0.749" fill="#a05c42" d="M 143.5,337.5 C 139.822,334.914 135.822,334.247 131.5,335.5C 134.137,333.573 137.137,333.073 140.5,334C 142.426,334.422 143.426,335.589 143.5,337.5 Z"/></g>
<g><path style="opacity:0.996" fill="#461e13" d="M 294.5,345.5 C 294.351,346.552 294.517,347.552 295,348.5C 301.187,356.829 306.687,365.495 311.5,374.5C 307.154,374.666 302.821,374.499 298.5,374C 292.659,366.811 287.993,358.978 284.5,350.5C 283.768,347.932 283.768,345.266 284.5,342.5C 285.397,341.402 286.23,341.402 287,342.5C 287.941,340.939 289.108,339.605 290.5,338.5C 293.125,340.081 294.458,342.415 294.5,345.5 Z"/></g>
<g><path style="opacity:0.078" fill="#eeaa88" d="M 272.5,342.5 C 272.5,352.833 272.5,363.167 272.5,373.5C 276.167,373.5 279.833,373.5 283.5,373.5C 279.702,374.483 275.702,374.817 271.5,374.5C 271.172,363.654 271.506,352.987 272.5,342.5 Z"/></g>
<g><path style="opacity:0.271" fill="#c27e57" d="M 247.5,350.5 C 248.268,351.263 248.768,352.263 249,353.5C 249.383,352.944 249.883,352.611 250.5,352.5C 250.762,353.978 250.429,355.311 249.5,356.5C 247.914,354.827 247.247,352.827 247.5,350.5 Z"/></g>
<g><path style="opacity:0.314" fill="#bb7b5e" d="M 389.5,326.5 C 389.5,342.5 389.5,358.5 389.5,374.5C 387.265,374.795 385.265,374.461 383.5,373.5C 385.167,373.5 386.833,373.5 388.5,373.5C 388.17,357.658 388.504,341.991 389.5,326.5 Z"/></g>
<g><path style="opacity:0.251" fill="#b47653" d="M 353.5,350.5 C 353.5,358.167 353.5,365.833 353.5,373.5C 356.833,373.5 360.167,373.5 363.5,373.5C 361.866,374.161 360.033,374.494 358,374.5C 355.625,374.596 353.459,374.096 351.5,373C 352.152,365.401 352.818,357.901 353.5,350.5 Z"/></g>
<g><path style="opacity:0.987" fill="#4c2216" d="M 346.5,362.5 C 344.754,369.244 340.421,373.244 333.5,374.5C 333.611,373.883 333.944,373.383 334.5,373C 331.592,371.087 330.926,368.754 332.5,366C 330.825,365.015 329.158,364.181 327.5,363.5C 330.079,363.606 332.412,362.939 334.5,361.5C 333.972,362.847 333.805,364.181 334,365.5C 335.406,364.332 336.572,364.665 337.5,366.5C 337.554,365.47 337.888,364.303 338.5,363C 339.833,363 341.167,363 342.5,363C 341.04,362.189 340.707,361.355 341.5,360.5C 343.393,359.945 345.06,360.612 346.5,362.5 Z"/></g>
<g><path style="opacity:0.196" fill="#e2a280" d="M 283.5,341.5 C 283.5,342.167 283.833,342.5 284.5,342.5C 283.768,345.266 283.768,347.932 284.5,350.5C 283.508,357.648 283.175,364.981 283.5,372.5C 282.167,362.167 282.167,351.833 283.5,341.5 Z"/></g>
<g><path style="opacity:0.989" fill="#572a1a" d="M 133.5,363.5 C 132.852,364.979 132.519,366.479 132.5,368C 133.167,368.333 133.833,368.667 134.5,369C 132.018,369.677 130.185,368.844 129,366.5C 127.981,368.269 127.814,369.936 128.5,371.5C 132.655,373.185 136.988,373.851 141.5,373.5C 132.043,376.012 123.543,374.012 116,367.5C 115.383,366.551 115.549,365.718 116.5,365C 119.054,362.937 121.72,361.103 124.5,359.5C 127.447,361.144 130.447,362.477 133.5,363.5 Z"/></g>
<g><path style="opacity:0.006" fill="#f9e5c5" d="M 167.5,354.5 C 167.5,357.167 167.5,359.833 167.5,362.5C 174.687,362.175 181.687,362.509 188.5,363.5C 181.167,363.5 173.833,363.5 166.5,363.5C 166.19,360.287 166.523,357.287 167.5,354.5 Z"/></g>
<g><path style="opacity:0.133" fill="#d39174" d="M 156.5,368.5 C 157.451,369.919 157.784,371.585 157.5,373.5C 167.833,373.5 178.167,373.5 188.5,373.5C 188.5,372.167 188.5,370.833 188.5,369.5C 189.451,370.919 189.784,372.585 189.5,374.5C 178.495,374.667 167.495,374.5 156.5,374C 156.146,372.374 156.146,370.541 156.5,368.5 Z"/></g>
<g><path style="opacity:0.239" fill="#d29174" d="M 203.5,367.5 C 204.468,369.607 204.802,371.941 204.5,374.5C 200.629,374.815 196.962,374.482 193.5,373.5C 196.833,373.5 200.167,373.5 203.5,373.5C 203.5,371.5 203.5,369.5 203.5,367.5 Z"/></g>
<g><path style="opacity:0.114" fill="#cd906d" d="M 227.5,368.5 C 230.044,369.708 231.378,371.708 231.5,374.5C 226.637,374.819 221.97,374.486 217.5,373.5C 221.846,373.666 226.179,373.499 230.5,373C 228.859,371.871 227.859,370.371 227.5,368.5 Z"/></g>
</svg>
