<?xml version="1.0" encoding="UTF-8"?>
<!DOCTYPE svg PUBLIC "-//W3C//DTD SVG 1.1//EN" "http://www.w3.org/Graphics/SVG/1.1/DTD/svg11.dtd">
<svg xmlns="http://www.w3.org/2000/svg" version="1.1" width="500px" height="500px" style="shape-rendering:geometricPrecision; text-rendering:geometricPrecision; image-rendering:optimizeQuality; fill-rule:evenodd; clip-rule:evenodd" xmlns:xlink="http://www.w3.org/1999/xlink">
<g><path style="opacity:1" fill="#ededec" d="M 273.5,110.5 C 273.5,114.5 273.5,118.5 273.5,122.5C 234.172,121.688 194.839,121.355 155.5,121.5C 155.795,119.265 155.461,117.265 154.5,115.5C 153.549,114.081 153.216,112.415 153.5,110.5C 193.607,109.437 233.607,109.437 273.5,110.5 Z"/></g>
<g><path style="opacity:0.996" fill="#f6f9f9" d="M 353.5,110.5 C 353.667,124.837 353.5,139.171 353,153.5C 351.509,155.004 349.676,155.837 347.5,156C 346.663,157.011 346.33,158.178 346.5,159.5C 345.167,159.5 343.833,159.5 342.5,159.5C 342.825,143.589 342.491,127.756 341.5,112C 342.737,111.768 343.737,111.268 344.5,110.5C 347.638,110.288 350.638,110.288 353.5,110.5 Z"/></g>
<g><path style="opacity:1" fill="#e4e7e8" d="M 379.5,129.5 C 375.189,129.674 371.189,128.674 367.5,126.5C 363.215,120.627 363.882,115.127 369.5,110C 376.815,106.725 382.648,108.558 387,115.5C 388.921,122.663 386.421,127.329 379.5,129.5 Z"/></g>
<g><path style="opacity:1" fill="#f3f4f4" d="M 323.5,110.5 C 325.165,152.323 326.165,194.323 326.5,236.5C 327.078,244.06 330.745,249.393 337.5,252.5C 337.821,254.048 338.821,254.715 340.5,254.5C 344.833,254.5 349.167,254.5 353.5,254.5C 355.518,253.377 357.518,253.377 359.5,254.5C 359.911,253.738 360.077,252.738 360,251.5C 362.545,252.522 365.045,253.688 367.5,255C 368.731,256.183 368.731,257.349 367.5,258.5C 363.633,257.513 363.633,258.013 367.5,260C 365.065,260.075 364.398,260.908 365.5,262.5C 363.163,264.396 360.496,265.73 357.5,266.5C 341.945,268.754 329.112,264.088 319,252.5C 316.318,247.817 314.818,242.817 314.5,237.5C 314.158,228.753 314.825,220.087 316.5,211.5C 315.911,198.133 315.245,184.8 314.5,171.5C 318.004,166.948 318.337,162.114 315.5,157C 316.167,155 316.833,153 317.5,151C 316.884,145.319 316.217,139.652 315.5,134C 316.66,131.838 317.826,129.671 319,127.5C 319.333,128.5 319.667,129.5 320,130.5C 322.25,125.21 323.75,119.71 324.5,114C 324.352,112.744 324.018,111.577 323.5,110.5 Z"/></g>
<g><path style="opacity:1" fill="#e6e8e7" d="M 285.5,127.5 C 285.421,126.07 285.754,124.736 286.5,123.5C 285.965,121.729 285.131,121.396 284,122.5C 283.505,120.527 283.338,118.527 283.5,116.5C 283.549,113.901 284.549,111.734 286.5,110C 296.325,106.078 302.325,109.245 304.5,119.5C 303.723,126.445 299.89,130.112 293,130.5C 290.044,130.432 287.544,129.432 285.5,127.5 Z"/></g>
<g><path style="opacity:0.214" fill="#3c4042" d="M 141.5,114.5 C 142.117,114.611 142.617,114.944 143,115.5C 143.801,118.367 143.634,121.034 142.5,123.5C 142.632,120.43 142.299,117.43 141.5,114.5 Z"/></g>
<g><path style="opacity:1" fill="#e0e3e5" d="M 141.5,114.5 C 142.299,117.43 142.632,120.43 142.5,123.5C 138.906,131.332 133.572,133.332 126.5,129.5C 124.814,126.496 122.814,123.83 120.5,121.5C 119.867,114.604 122.867,110.104 129.5,108C 132.649,107.726 135.649,108.392 138.5,110C 140.141,111.129 141.141,112.629 141.5,114.5 Z M 131.5,116.5 C 133.532,117.048 134.532,118.381 134.5,120.5C 132.833,120.5 131.167,120.5 129.5,120.5C 129.527,118.801 130.194,117.467 131.5,116.5 Z"/></g>
<g><path style="opacity:0.947" fill="#a1a3a3" d="M 273.5,110.5 C 274.823,114.9 274.823,119.4 273.5,124C 239.59,123.751 205.924,123.585 172.5,123.5C 166.402,124.117 160.735,123.45 155.5,121.5C 194.839,121.355 234.172,121.688 273.5,122.5C 273.5,118.5 273.5,114.5 273.5,110.5 Z"/></g>
<g><path style="opacity:0.588" fill="#87898a" d="M 120.5,121.5 C 122.814,123.83 124.814,126.496 126.5,129.5C 123.066,127.987 121.066,125.32 120.5,121.5 Z"/></g>
<g><path style="opacity:0.031" fill="#424344" d="M 154.5,115.5 C 155.461,117.265 155.795,119.265 155.5,121.5C 160.735,123.45 166.402,124.117 172.5,123.5C 166.69,124.49 160.69,124.823 154.5,124.5C 154.5,121.5 154.5,118.5 154.5,115.5 Z"/></g>
<g><path style="opacity:1" fill="#868788" d="M 283.5,116.5 C 283.338,118.527 283.505,120.527 284,122.5C 285.131,121.396 285.965,121.729 286.5,123.5C 285.754,124.736 285.421,126.07 285.5,127.5C 282.598,124.173 281.931,120.506 283.5,116.5 Z"/></g>
<g><path style="opacity:0.643" fill="#797e7f" d="M 367.5,126.5 C 371.189,128.674 375.189,129.674 379.5,129.5C 374.888,131.263 370.888,130.263 367.5,126.5 Z"/></g>
<g><path style="opacity:0.573" fill="#94969a" d="M 159.5,135.5 C 197.33,134.501 235.33,134.168 273.5,134.5C 273.784,136.415 273.451,138.081 272.5,139.5C 272.5,138.167 272.5,136.833 272.5,135.5C 249.167,135.5 225.833,135.5 202.5,135.5C 188.167,135.5 173.833,135.5 159.5,135.5 Z"/></g>
<g><path style="opacity:1" fill="#f1f3f2" d="M 159.5,135.5 C 173.833,135.5 188.167,135.5 202.5,135.5C 203.347,136.966 204.68,137.8 206.5,138C 206.167,138.333 205.833,138.667 205.5,139C 206.308,139.308 206.975,139.808 207.5,140.5C 205.459,141.097 203.626,141.097 202,140.5C 200.115,141.313 199.449,142.647 200,144.5C 221.211,145.736 242.878,145.736 265,144.5C 265.717,145.044 266.217,145.711 266.5,146.5C 236.159,146.751 205.825,146.418 175.5,145.5C 169.694,145.404 164.028,146.07 158.5,147.5C 160.434,144.728 159.767,142.895 156.5,142C 157.517,140.951 157.684,139.784 157,138.5C 155.913,140.932 155.413,140.598 155.5,137.5C 154.5,137.5 153.5,137.5 152.5,137.5C 154.515,136.076 156.848,135.41 159.5,135.5 Z"/></g>
<g><path style="opacity:1" fill="#f4f6f6" d="M 202.5,135.5 C 225.833,135.5 249.167,135.5 272.5,135.5C 272.5,136.833 272.5,138.167 272.5,139.5C 272.5,141.833 272.5,144.167 272.5,146.5C 270.5,146.5 268.5,146.5 266.5,146.5C 266.217,145.711 265.717,145.044 265,144.5C 242.878,145.736 221.211,145.736 200,144.5C 199.449,142.647 200.115,141.313 202,140.5C 203.626,141.097 205.459,141.097 207.5,140.5C 206.975,139.808 206.308,139.308 205.5,139C 205.833,138.667 206.167,138.333 206.5,138C 204.68,137.8 203.347,136.966 202.5,135.5 Z"/></g>
<g><path style="opacity:0.192" fill="#5b5b5d" d="M 368.5,138.5 C 373.015,137.188 377.682,137.188 382.5,138.5C 381.754,139.736 381.421,141.07 381.5,142.5C 380.566,141.432 380.232,140.099 380.5,138.5C 376.833,138.5 373.167,138.5 369.5,138.5C 369.167,138.5 368.833,138.5 368.5,138.5 Z"/></g>
<g><path style="opacity:0.098" fill="#848588" d="M 298.5,139.5 C 294.069,139.231 289.735,139.564 285.5,140.5C 287.223,139.2 289.39,138.533 292,138.5C 294.361,138.504 296.527,138.837 298.5,139.5 Z"/></g>
<g><path style="opacity:0.999" fill="#d0d2d1" d="M 344.5,110.5 C 343.737,111.268 342.737,111.768 341.5,112C 342.491,127.756 342.825,143.589 342.5,159.5C 342.5,184.167 342.5,208.833 342.5,233.5C 341.833,193.5 341.167,153.5 340.5,113.5C 340.5,112.5 340.5,111.5 340.5,110.5C 342.139,110.074 343.472,110.074 344.5,110.5 Z"/></g>
<g><path style="opacity:1" fill="#f4f6f5" d="M 152.5,137.5 C 153.5,137.5 154.5,137.5 155.5,137.5C 155.413,140.598 155.913,140.932 157,138.5C 157.684,139.784 157.517,140.951 156.5,142C 159.767,142.895 160.434,144.728 158.5,147.5C 155.47,150.348 151.804,152.182 147.5,153C 147.957,153.414 148.291,153.914 148.5,154.5C 145.854,156.132 144.521,158.465 144.5,161.5C 143.448,161.351 142.448,161.517 141.5,162C 142.337,163.011 142.67,164.178 142.5,165.5C 142.443,166.609 142.11,167.609 141.5,168.5C 139.511,172.402 139.177,176.402 140.5,180.5C 141.832,184.853 143.499,189.186 145.5,193.5C 145.856,195.19 146.856,196.19 148.5,196.5C 149.523,198.846 150.523,201.179 151.5,203.5C 153.766,203.141 155.599,203.808 157,205.5C 158.281,204.353 158.614,204.687 158,206.5C 157.25,207.126 156.416,207.626 155.5,208C 157.5,208.667 158.833,210 159.5,212C 158.316,213.145 158.316,214.312 159.5,215.5C 146.55,212.215 137.217,204.548 131.5,192.5C 131.137,188.113 130.471,183.78 129.5,179.5C 128.837,175.679 130.171,172.846 133.5,171C 132.833,169.667 131.833,168.667 130.5,168C 131.623,166.125 131.623,163.958 130.5,161.5C 131.5,161.5 132.5,161.5 133.5,161.5C 133.351,160.448 133.517,159.448 134,158.5C 135.975,157.522 137.642,156.189 139,154.5C 140.473,154.903 141.806,155.57 143,156.5C 144.094,150.08 146.928,145.413 151.5,142.5C 152.904,143.999 153.57,143.666 153.5,141.5C 153.182,140.353 152.516,139.519 151.5,139C 152.056,138.617 152.389,138.117 152.5,137.5 Z"/></g>
<g><path style="opacity:1" fill="#ebeded" d="M 298.5,139.5 C 299.926,141.679 300.592,144.179 300.5,147C 299.822,185.434 299.489,223.934 299.5,262.5C 297.616,263.675 295.449,264.342 293,264.5C 290.967,264.494 289.134,264.161 287.5,263.5C 287.667,223.165 287.5,182.832 287,142.5C 286.617,141.944 286.117,141.611 285.5,141.5C 285.5,141.167 285.5,140.833 285.5,140.5C 289.735,139.564 294.069,139.231 298.5,139.5 Z"/></g>
<g><path style="opacity:0.561" fill="#828485" d="M 266.5,146.5 C 268.5,146.5 270.5,146.5 272.5,146.5C 272.5,147.5 272.5,148.5 272.5,149.5C 240.808,149.29 209.141,148.623 177.5,147.5C 168.694,147.53 160.36,149.363 152.5,153C 148.787,156.963 145.454,161.129 142.5,165.5C 142.67,164.178 142.337,163.011 141.5,162C 142.448,161.517 143.448,161.351 144.5,161.5C 144.521,158.465 145.854,156.132 148.5,154.5C 148.291,153.914 147.957,153.414 147.5,153C 151.804,152.182 155.47,150.348 158.5,147.5C 164.028,146.07 169.694,145.404 175.5,145.5C 205.825,146.418 236.159,146.751 266.5,146.5 Z"/></g>
<g><path style="opacity:1" fill="#d9dadc" d="M 152.5,137.5 C 152.389,138.117 152.056,138.617 151.5,139C 152.516,139.519 153.182,140.353 153.5,141.5C 153.57,143.666 152.904,143.999 151.5,142.5C 146.928,145.413 144.094,150.08 143,156.5C 141.806,155.57 140.473,154.903 139,154.5C 137.642,156.189 135.975,157.522 134,158.5C 133.517,159.448 133.351,160.448 133.5,161.5C 132.5,161.5 131.5,161.5 130.5,161.5C 131.623,163.958 131.623,166.125 130.5,168C 131.833,168.667 132.833,169.667 133.5,171C 130.171,172.846 128.837,175.679 129.5,179.5C 130.471,183.78 131.137,188.113 131.5,192.5C 130.833,191.833 130.167,191.167 129.5,190.5C 124.416,172.433 128.416,156.6 141.5,143C 144.853,140.467 148.519,138.633 152.5,137.5 Z"/></g>
<g><path style="opacity:0.975" fill="#d8dadb" d="M 321.5,109.5 C 321.842,110.338 322.508,110.672 323.5,110.5C 324.018,111.577 324.352,112.744 324.5,114C 323.75,119.71 322.25,125.21 320,130.5C 319.667,129.5 319.333,128.5 319,127.5C 317.826,129.671 316.66,131.838 315.5,134C 316.217,139.652 316.884,145.319 317.5,151C 316.833,153 316.167,155 315.5,157C 318.337,162.114 318.004,166.948 314.5,171.5C 315.245,184.8 315.911,198.133 316.5,211.5C 314.825,220.087 314.158,228.753 314.5,237.5C 313.833,238.167 313.167,238.833 312.5,239.5C 312.441,196.684 312.441,153.684 312.5,110.5C 315.545,110.492 318.545,110.159 321.5,109.5 Z"/></g>
<g><path style="opacity:0.996" fill="#e1e3e3" d="M 203.5,159.5 C 220.659,160.497 237.992,160.83 255.5,160.5C 239.692,161.997 223.692,162.831 207.5,163C 210.167,163.333 212.833,163.667 215.5,164C 211.049,164.13 206.716,164.796 202.5,166C 204.619,166.098 206.286,166.931 207.5,168.5C 203.353,169.167 199.353,169.834 195.5,170.5C 187.493,170.334 179.493,170.5 171.5,171C 170.619,171.708 169.953,172.542 169.5,173.5C 168.115,178.109 169.781,181.275 174.5,183C 197.004,183.168 219.337,183.668 241.5,184.5C 218.788,184.177 196.121,184.511 173.5,185.5C 172.108,184.395 170.941,183.061 170,181.5C 168.209,183.513 166.875,183.513 166,181.5C 164.832,178.107 165.666,175.441 168.5,173.5C 168.274,170.776 167.94,168.109 167.5,165.5C 164.156,165.65 161.823,167.317 160.5,170.5C 160.977,171.478 161.643,172.311 162.5,173C 157.95,174.817 156.617,177.983 158.5,182.5C 157.222,182.218 156.222,181.551 155.5,180.5C 154.395,174.891 155.562,169.558 159,164.5C 160.731,162.383 162.898,160.883 165.5,160C 178.291,158.261 190.958,158.095 203.5,159.5 Z"/></g>
<g><path style="opacity:0.816" fill="#cccecf" d="M 203.5,159.5 C 226.833,159.5 250.167,159.5 273.5,159.5C 273.5,163.167 273.5,166.833 273.5,170.5C 273.167,170.5 272.833,170.5 272.5,170.5C 272.5,167.167 272.5,163.833 272.5,160.5C 266.833,160.5 261.167,160.5 255.5,160.5C 237.992,160.83 220.659,160.497 203.5,159.5 Z"/></g>
<g><path style="opacity:1" fill="#f4f7f5" d="M 255.5,160.5 C 261.167,160.5 266.833,160.5 272.5,160.5C 272.5,163.833 272.5,167.167 272.5,170.5C 272.5,170.833 272.5,171.167 272.5,171.5C 246.835,171.056 221.168,170.722 195.5,170.5C 199.353,169.834 203.353,169.167 207.5,168.5C 206.286,166.931 204.619,166.098 202.5,166C 206.716,164.796 211.049,164.13 215.5,164C 212.833,163.667 210.167,163.333 207.5,163C 223.692,162.831 239.692,161.997 255.5,160.5 Z"/></g>
<g><path style="opacity:0.02" fill="#626466" d="M 368.5,144.5 C 368.17,164.34 368.503,184.007 369.5,203.5C 369.828,215.012 369.495,226.346 368.5,237.5C 367.455,206.528 367.455,175.528 368.5,144.5 Z"/></g>
<g><path style="opacity:0.938" fill="#949797" d="M 195.5,170.5 C 221.168,170.722 246.835,171.056 272.5,171.5C 255.5,172.167 238.5,172.833 221.5,173.5C 204.167,173.5 186.833,173.5 169.5,173.5C 169.953,172.542 170.619,171.708 171.5,171C 179.493,170.5 187.493,170.334 195.5,170.5 Z"/></g>
<g><path style="opacity:0.782" fill="#afb0b1" d="M 368.5,138.5 C 368.833,138.5 369.167,138.5 369.5,138.5C 369.5,139.5 369.5,140.5 369.5,141.5C 369.5,162.167 369.5,182.833 369.5,203.5C 368.503,184.007 368.17,164.34 368.5,144.5C 368.065,142.703 368.065,140.703 368.5,138.5 Z"/></g>
<g><path style="opacity:0.301" fill="#656969" d="M 272.5,170.5 C 272.833,170.5 273.167,170.5 273.5,170.5C 273.5,171.5 273.5,172.5 273.5,173.5C 256.167,173.5 238.833,173.5 221.5,173.5C 238.5,172.833 255.5,172.167 272.5,171.5C 272.5,171.167 272.5,170.833 272.5,170.5 Z"/></g>
<g><path style="opacity:0.999" fill="#e9eae9" d="M 369.5,138.5 C 373.167,138.5 376.833,138.5 380.5,138.5C 380.232,140.099 380.566,141.432 381.5,142.5C 382.448,170.482 382.782,198.482 382.5,226.5C 381.691,228.292 381.191,230.292 381,232.5C 378.889,232.423 376.889,232.089 375,231.5C 373.667,234.167 372.333,234.167 371,231.5C 370.832,201.331 370.332,171.331 369.5,141.5C 369.5,140.5 369.5,139.5 369.5,138.5 Z"/></g>
<g><path style="opacity:0.439" fill="#86878a" d="M 141.5,168.5 C 140.979,172.481 140.646,176.481 140.5,180.5C 139.177,176.402 139.511,172.402 141.5,168.5 Z"/></g>
<g><path style="opacity:1" fill="#f3f4f5" d="M 241.5,184.5 C 242.609,184.557 243.609,184.89 244.5,185.5C 245.514,186.674 246.847,187.34 248.5,187.5C 257.548,191.549 263.881,198.215 267.5,207.5C 267.643,209.262 267.309,210.929 266.5,212.5C 266.977,213.478 267.643,214.311 268.5,215C 266.5,217.667 264.167,220 261.5,222C 262.654,222.914 262.487,223.747 261,224.5C 260.79,222.942 260.29,221.609 259.5,220.5C 256.623,207.291 248.623,198.791 235.5,195C 214.167,194.667 192.833,194.333 171.5,194C 165.11,192.441 160.777,188.608 158.5,182.5C 156.617,177.983 157.95,174.817 162.5,173C 161.643,172.311 160.977,171.478 160.5,170.5C 161.823,167.317 164.156,165.65 167.5,165.5C 167.94,168.109 168.274,170.776 168.5,173.5C 165.666,175.441 164.832,178.107 166,181.5C 166.875,183.513 168.209,183.513 170,181.5C 170.941,183.061 172.108,184.395 173.5,185.5C 196.121,184.511 218.788,184.177 241.5,184.5 Z"/></g>
<g><path style="opacity:0.255" fill="#8d8e8f" d="M 340.5,113.5 C 341.167,153.5 341.833,193.5 342.5,233.5C 342.723,236.509 343.723,239.176 345.5,241.5C 343.61,241.703 342.11,241.037 341,239.5C 340.693,205.997 340.193,172.497 339.5,139C 339.653,130.487 339.986,121.987 340.5,113.5 Z"/></g>
<g><path style="opacity:0.008" fill="#656969" d="M 244.5,185.5 C 246.38,185.229 247.713,185.896 248.5,187.5C 246.847,187.34 245.514,186.674 244.5,185.5 Z"/></g>
<g><path style="opacity:0.698" fill="#949798" d="M 155.5,180.5 C 156.222,181.551 157.222,182.218 158.5,182.5C 160.777,188.608 165.11,192.441 171.5,194C 192.833,194.333 214.167,194.667 235.5,195C 248.623,198.791 256.623,207.291 259.5,220.5C 258.833,220.5 258.5,220.833 258.5,221.5C 255.327,211.481 248.994,203.981 239.5,199C 235.916,197.927 232.25,197.26 228.5,197C 212.22,196.309 196.386,196.476 181,197.5C 172.294,197.821 164.961,194.821 159,188.5C 157.007,186.182 155.841,183.516 155.5,180.5 Z"/></g>
<g><path style="opacity:0.09" fill="#38373e" d="M 145.5,193.5 C 147.144,193.81 148.144,194.81 148.5,196.5C 146.856,196.19 145.856,195.19 145.5,193.5 Z"/></g>
<g><path style="opacity:0.333" fill="#b0b1b3" d="M 321.5,109.5 C 323.167,109.5 324.833,109.5 326.5,109.5C 326.5,151.833 326.5,194.167 326.5,236.5C 326.165,194.323 325.165,152.323 323.5,110.5C 322.508,110.672 321.842,110.338 321.5,109.5 Z"/></g>
<g><path style="opacity:1" fill="#e0e1e1" d="M 353.5,110.5 C 354.665,153.998 354.831,197.665 354,241.5C 351.063,242.817 348.23,242.817 345.5,241.5C 343.723,239.176 342.723,236.509 342.5,233.5C 342.5,208.833 342.5,184.167 342.5,159.5C 343.833,159.5 345.167,159.5 346.5,159.5C 346.33,158.178 346.663,157.011 347.5,156C 349.676,155.837 351.509,155.004 353,153.5C 353.5,139.171 353.667,124.837 353.5,110.5 Z"/></g>
<g><path style="opacity:1" fill="#e5e8e7" d="M 148.5,196.5 C 153.244,201.208 158.911,204.375 165.5,206C 187.875,206.054 210.209,206.721 232.5,208C 241.768,213.024 245.101,220.524 242.5,230.5C 242.817,227.428 242.484,224.428 241.5,221.5C 240.201,222.09 239.368,223.09 239,224.5C 237.796,223.529 237.296,222.529 237.5,221.5C 236.833,222.167 236.167,222.833 235.5,223.5C 234.702,221.922 234.202,220.256 234,218.5C 232.817,217.269 231.651,217.269 230.5,218.5C 231.653,219.687 231.653,220.687 230.5,221.5C 229.833,221.5 229.167,221.5 228.5,221.5C 228.167,221.5 227.833,221.5 227.5,221.5C 228.447,219.242 227.447,218.075 224.5,218C 203.833,217.667 183.167,217.333 162.5,217C 161.263,216.768 160.263,216.268 159.5,215.5C 158.316,214.312 158.316,213.145 159.5,212C 158.833,210 157.5,208.667 155.5,208C 156.416,207.626 157.25,207.126 158,206.5C 158.614,204.687 158.281,204.353 157,205.5C 155.599,203.808 153.766,203.141 151.5,203.5C 150.523,201.179 149.523,198.846 148.5,196.5 Z"/></g>
<g><path style="opacity:0.984" fill="#7a7d7e" d="M 129.5,190.5 C 130.167,191.167 130.833,191.833 131.5,192.5C 137.217,204.548 146.55,212.215 159.5,215.5C 160.263,216.268 161.263,216.768 162.5,217C 183.167,217.333 203.833,217.667 224.5,218C 227.447,218.075 228.447,219.242 227.5,221.5C 210.574,220.681 193.574,220.181 176.5,220C 160.478,221.108 146.978,215.942 136,204.5C 132.481,200.463 130.315,195.796 129.5,190.5 Z"/></g>
<g><path style="opacity:0.184" fill="#74757e" d="M 228.5,221.5 C 229.167,221.5 229.833,221.5 230.5,221.5C 230.611,222.117 230.944,222.617 231.5,223C 231.011,225.209 230.011,227.042 228.5,228.5C 229.833,226.167 229.833,223.833 228.5,221.5 Z"/></g>
<g><path style="opacity:0.161" fill="#35373a" d="M 212.5,229.5 C 209.833,229.5 207.167,229.5 204.5,229.5C 176.995,229.169 149.662,229.502 122.5,230.5C 121.957,230.44 121.624,230.107 121.5,229.5C 151.997,228.17 182.331,228.17 212.5,229.5 Z"/></g>
<g><path style="opacity:1" fill="#f4f6f6" d="M 204.5,229.5 C 201.058,230.748 197.392,231.581 193.5,232C 192.107,233.171 191.273,234.671 191,236.5C 188.206,235.154 185.706,235.654 183.5,238C 184.5,238.333 185.5,238.667 186.5,239C 172.661,239.169 158.994,239.669 145.5,240.5C 137.833,240.5 130.167,240.5 122.5,240.5C 122.5,238.167 122.5,235.833 122.5,233.5C 122.5,232.5 122.5,231.5 122.5,230.5C 149.662,229.502 176.995,229.169 204.5,229.5 Z"/></g>
<g><path style="opacity:1" fill="#e8eaea" d="M 267.5,207.5 C 273.136,218.268 273.969,229.601 270,241.5C 268.704,245.254 266.87,248.587 264.5,251.5C 264.5,251.167 264.5,250.833 264.5,250.5C 264.417,248.43 263.417,248.097 261.5,249.5C 257.996,248.564 255.663,246.897 254.5,244.5C 253.583,245.127 252.583,245.461 251.5,245.5C 253.917,242.332 256.084,238.999 258,235.5C 258.499,230.845 258.666,226.179 258.5,221.5C 258.5,220.833 258.833,220.5 259.5,220.5C 260.29,221.609 260.79,222.942 261,224.5C 262.487,223.747 262.654,222.914 261.5,222C 264.167,220 266.5,217.667 268.5,215C 267.643,214.311 266.977,213.478 266.5,212.5C 267.309,210.929 267.643,209.262 267.5,207.5 Z"/></g>
<g><path style="opacity:1" fill="#edf0f0" d="M 242.5,230.5 C 242.103,234.565 240.103,237.565 236.5,239.5C 229.976,241.131 223.31,241.798 216.5,241.5C 215.5,241.5 214.5,241.5 213.5,241.5C 191.006,240.503 168.339,240.169 145.5,240.5C 158.994,239.669 172.661,239.169 186.5,239C 185.5,238.667 184.5,238.333 183.5,238C 185.706,235.654 188.206,235.154 191,236.5C 191.273,234.671 192.107,233.171 193.5,232C 197.392,231.581 201.058,230.748 204.5,229.5C 207.167,229.5 209.833,229.5 212.5,229.5C 217.895,229.733 223.228,229.4 228.5,228.5C 230.011,227.042 231.011,225.209 231.5,223C 230.944,222.617 230.611,222.117 230.5,221.5C 231.653,220.687 231.653,219.687 230.5,218.5C 231.651,217.269 232.817,217.269 234,218.5C 234.202,220.256 234.702,221.922 235.5,223.5C 236.167,222.833 236.833,222.167 237.5,221.5C 237.296,222.529 237.796,223.529 239,224.5C 239.368,223.09 240.201,222.09 241.5,221.5C 242.484,224.428 242.817,227.428 242.5,230.5 Z"/></g>
<g><path style="opacity:0.966" fill="#b7b8b9" d="M 285.5,141.5 C 286.117,141.611 286.617,141.944 287,142.5C 287.5,182.832 287.667,223.165 287.5,263.5C 286.833,248.833 286.167,234.167 285.5,219.5C 286.019,193.42 286.019,167.42 285.5,141.5 Z"/></g>
<g><path style="opacity:0.408" fill="#7e7e80" d="M 285.5,219.5 C 286.167,234.167 286.833,248.833 287.5,263.5C 289.134,264.161 290.967,264.494 293,264.5C 295.449,264.342 297.616,263.675 299.5,262.5C 299.5,263.5 299.5,264.5 299.5,265.5C 294.875,265.758 290.375,265.758 286,265.5C 285.5,250.17 285.333,234.837 285.5,219.5 Z"/></g>
<g><path style="opacity:0.892" fill="#adafb0" d="M 122.5,233.5 C 122.5,235.833 122.5,238.167 122.5,240.5C 130.167,240.5 137.833,240.5 145.5,240.5C 168.339,240.169 191.006,240.503 213.5,241.5C 188.994,241.169 164.661,241.502 140.5,242.5C 134.308,242.205 127.975,242.538 121.5,243.5C 121.187,239.958 121.521,236.625 122.5,233.5 Z"/></g>
<g><path style="opacity:0.733" fill="#717677" d="M 140.5,242.5 C 164.661,241.502 188.994,241.169 213.5,241.5C 214.5,241.5 215.5,241.5 216.5,241.5C 216.5,242.167 216.5,242.833 216.5,243.5C 191.185,242.557 165.852,242.224 140.5,242.5 Z"/></g>
<g><path style="opacity:0.376" fill="#9c9d9e" d="M 236.5,239.5 C 235.025,241.41 233.025,242.576 230.5,243C 226.627,243.27 222.794,243.77 219,244.5C 218.098,244.257 217.265,243.923 216.5,243.5C 216.5,242.833 216.5,242.167 216.5,241.5C 223.31,241.798 229.976,241.131 236.5,239.5 Z"/></g>
<g><path style="opacity:1" fill="#e5e7e6" d="M 369.5,141.5 C 370.332,171.331 370.832,201.331 371,231.5C 372.333,234.167 373.667,234.167 375,231.5C 376.889,232.089 378.889,232.423 381,232.5C 381.191,230.292 381.691,228.292 382.5,226.5C 384.836,242.488 379.169,254.488 365.5,262.5C 364.398,260.908 365.065,260.075 367.5,260C 363.633,258.013 363.633,257.513 367.5,258.5C 368.731,257.349 368.731,256.183 367.5,255C 365.045,253.688 362.545,252.522 360,251.5C 360.077,252.738 359.911,253.738 359.5,254.5C 357.518,253.377 355.518,253.377 353.5,254.5C 360.924,251.07 365.924,245.403 368.5,237.5C 369.495,226.346 369.828,215.012 369.5,203.5C 369.5,182.833 369.5,162.167 369.5,141.5 Z"/></g>
<g><path style="opacity:0.902" fill="#9ea19f" d="M 264.5,250.5 C 264.5,250.833 264.5,251.167 264.5,251.5C 262.188,255.812 258.855,259.145 254.5,261.5C 254.5,260.5 254.5,259.5 254.5,258.5C 257.5,258.167 259.167,256.5 259.5,253.5C 261.942,253.646 262.609,252.813 261.5,251C 262.448,250.517 263.448,250.351 264.5,250.5 Z"/></g>
<g><path style="opacity:0.592" fill="#626263" d="M 337.5,252.5 C 338.71,252.932 339.71,253.599 340.5,254.5C 338.821,254.715 337.821,254.048 337.5,252.5 Z"/></g>
<g><path style="opacity:0.998" fill="#e7e9e8" d="M 264.5,250.5 C 263.448,250.351 262.448,250.517 261.5,251C 262.609,252.813 261.942,253.646 259.5,253.5C 259.167,256.5 257.5,258.167 254.5,258.5C 254.5,259.5 254.5,260.5 254.5,261.5C 249.763,262.368 245.096,263.534 240.5,265C 201.128,265.082 161.795,264.582 122.5,263.5C 122.205,260.012 122.205,256.346 122.5,252.5C 158.856,252.19 195.189,252.857 231.5,254.5C 239.465,254.159 246.131,251.159 251.5,245.5C 252.583,245.461 253.583,245.127 254.5,244.5C 255.663,246.897 257.996,248.564 261.5,249.5C 263.417,248.097 264.417,248.43 264.5,250.5 Z"/></g>
<g><path style="opacity:0.769" fill="#8c8f90" d="M 314.5,237.5 C 314.818,242.817 316.318,247.817 319,252.5C 329.112,264.088 341.945,268.754 357.5,266.5C 341.089,271.354 327.589,267.02 317,253.5C 314.591,249.108 313.091,244.442 312.5,239.5C 313.167,238.833 313.833,238.167 314.5,237.5 Z"/></g>
<g><path style="opacity:0.855" fill="#9b9e9d" d="M 254.5,261.5 C 247.465,266.02 239.631,268.353 231,268.5C 220.262,268.026 209.595,267.359 199,266.5C 173.543,266.615 148.043,266.615 122.5,266.5C 122.5,265.5 122.5,264.5 122.5,263.5C 161.795,264.582 201.128,265.082 240.5,265C 245.096,263.534 249.763,262.368 254.5,261.5 Z"/></g>
<g><path style="opacity:0.024" fill="#4e4f51" d="M 136.5,274.5 C 138.19,274.856 139.19,275.856 139.5,277.5C 137.81,277.144 136.81,276.144 136.5,274.5 Z"/></g>
<g><path style="opacity:1" fill="#e4e5e6" d="M 287.5,291.5 C 286.92,287.19 286.586,282.857 286.5,278.5C 289.262,273.64 293.262,272.473 298.5,275C 300.047,279.869 301.047,284.869 301.5,290C 301.043,290.414 300.709,290.914 300.5,291.5C 296.016,292.811 291.683,292.811 287.5,291.5 Z"/></g>
<g><path style="opacity:0.991" fill="#eff0f0" d="M 243.5,279.5 C 243.5,283.5 243.5,287.5 243.5,291.5C 213.865,290.524 184.198,290.19 154.5,290.5C 154.5,286.833 154.5,283.167 154.5,279.5C 173.833,279.5 193.167,279.5 212.5,279.5C 222.981,278.254 233.314,278.254 243.5,279.5 Z"/></g>
<g><path style="opacity:1" fill="#e3e7e9" d="M 262.5,273.5 C 269.455,272.89 273.955,275.89 276,282.5C 276.784,292.383 272.284,296.883 262.5,296C 255.9,292.39 253.4,286.89 255,279.5C 257.114,276.879 259.614,274.879 262.5,273.5 Z"/></g>
<g><path style="opacity:1" fill="#d2d5d6" d="M 381.5,294.5 C 380.737,293.732 379.737,293.232 378.5,293C 383.102,291.9 385.769,289.067 386.5,284.5C 385.127,284.343 383.793,284.51 382.5,285C 385,285.833 385.167,287 383,288.5C 382.411,286.137 380.911,285.137 378.5,285.5C 378.5,284.5 378.5,283.5 378.5,282.5C 374.437,282.616 373.77,283.949 376.5,286.5C 374.085,286.373 371.751,286.207 369.5,286C 370.833,287 370.833,288 369.5,289C 372.167,289.667 372.167,290.333 369.5,291C 372.325,294.5 375.992,296 380.5,295.5C 371.542,297.84 366.209,294.34 364.5,285C 366.609,275.269 372.609,271.602 382.5,274C 389.521,279.956 390.187,286.456 384.5,293.5C 383.675,294.386 382.675,294.719 381.5,294.5 Z M 378.5,285.5 C 378.158,286.338 377.492,286.672 376.5,286.5C 373.77,283.949 374.437,282.616 378.5,282.5C 378.5,283.5 378.5,284.5 378.5,285.5 Z"/></g>
<g><path style="opacity:0.212" fill="#7c7c7d" d="M 286.5,278.5 C 286.586,282.857 286.92,287.19 287.5,291.5C 286.048,289.152 285.382,286.486 285.5,283.5C 285.507,281.631 285.84,279.964 286.5,278.5 Z"/></g>
<g><path style="opacity:0.995" fill="#f8fafb" d="M 381.5,294.5 C 381.5,295.167 381.167,295.5 380.5,295.5C 375.992,296 372.325,294.5 369.5,291C 372.167,290.333 372.167,289.667 369.5,289C 370.833,288 370.833,287 369.5,286C 371.751,286.207 374.085,286.373 376.5,286.5C 377.492,286.672 378.158,286.338 378.5,285.5C 380.911,285.137 382.411,286.137 383,288.5C 385.167,287 385,285.833 382.5,285C 383.793,284.51 385.127,284.343 386.5,284.5C 385.769,289.067 383.102,291.9 378.5,293C 379.737,293.232 380.737,293.732 381.5,294.5 Z"/></g>
<g><path style="opacity:1" fill="#dfe1e3" d="M 136.5,274.5 C 136.81,276.144 137.81,277.144 139.5,277.5C 145.396,284.63 144.396,290.797 136.5,296C 124.682,297.515 119.515,292.348 121,280.5C 124.284,273.705 129.451,271.705 136.5,274.5 Z M 130.5,283.5 C 134.161,283.426 134.828,284.426 132.5,286.5C 130.129,286.108 129.462,285.108 130.5,283.5 Z"/></g>
<g><path style="opacity:0.803" fill="#878a8b" d="M 212.5,279.5 C 193.167,279.5 173.833,279.5 154.5,279.5C 154.5,283.167 154.5,286.833 154.5,290.5C 184.198,290.19 213.865,290.524 243.5,291.5C 243.5,287.5 243.5,283.5 243.5,279.5C 244.485,283.634 244.818,287.968 244.5,292.5C 214.167,292.5 183.833,292.5 153.5,292.5C 153.381,287.788 153.381,283.288 153.5,279C 173.338,278.171 193.004,278.338 212.5,279.5 Z"/></g>
<g><path style="opacity:0.843" fill="#9b9c9e" d="M 313.5,280.5 C 326.99,279.504 340.656,279.171 354.5,279.5C 354.5,283.833 354.5,288.167 354.5,292.5C 340.5,292.5 326.5,292.5 312.5,292.5C 312.183,288.298 312.517,284.298 313.5,280.5 Z"/></g>
<g><path style="opacity:1" fill="#f7f8f8" d="M 313.5,280.5 C 326.833,280.5 340.167,280.5 353.5,280.5C 353.5,283.833 353.5,287.167 353.5,290.5C 340.641,289.972 327.641,289.972 314.5,290.5C 314.658,287.098 314.324,283.764 313.5,280.5 Z"/></g>
<g><path style="opacity:0.394" fill="#86888c" d="M 267.5,331.5 C 267.317,329.064 267.984,326.897 269.5,325C 265.745,324.245 262.078,324.411 258.5,325.5C 262.029,323.577 266.029,322.911 270.5,323.5C 270.02,326.443 269.02,329.11 267.5,331.5 Z"/></g>
<g><path style="opacity:0.989" fill="#c0c1c3" d="M 295.5,349.5 C 294.275,348.848 293.608,347.681 293.5,346C 293.833,344.833 294.167,343.667 294.5,342.5C 296.147,337.977 298.814,333.811 302.5,330C 302.22,328.605 301.553,327.438 300.5,326.5C 297.441,327.847 294.441,329.18 291.5,330.5C 296.026,323.778 302.026,321.611 309.5,324C 305.073,331.429 300.24,338.596 295,345.5C 294.421,346.928 294.588,348.262 295.5,349.5 Z"/></g>
<g><path style="opacity:1" fill="#f4f6f6" d="M 187.5,324.5 C 187.5,327.5 187.5,330.5 187.5,333.5C 180.5,333.5 173.5,333.5 166.5,333.5C 166.5,337.167 166.5,340.833 166.5,344.5C 172.833,344.5 179.167,344.5 185.5,344.5C 185.5,347.833 185.5,351.167 185.5,354.5C 179.5,354.5 173.5,354.5 167.5,354.5C 166.523,357.287 166.19,360.287 166.5,363.5C 173.833,363.5 181.167,363.5 188.5,363.5C 189.7,366.969 189.7,370.302 188.5,373.5C 178.167,373.5 167.833,373.5 157.5,373.5C 157.5,357.167 157.5,340.833 157.5,324.5C 167.5,324.5 177.5,324.5 187.5,324.5 Z"/></g>
<g><path style="opacity:0.165" fill="#47484b" d="M 238.5,323.5 C 239.674,324.514 240.34,325.847 240.5,327.5C 238.896,326.713 238.229,325.38 238.5,323.5 Z"/></g>
<g><path style="opacity:0.278" fill="#616265" d="M 358.5,324.5 C 356.833,324.5 355.167,324.5 353.5,324.5C 353.5,329.167 353.5,333.833 353.5,338.5C 352.513,333.695 352.179,328.695 352.5,323.5C 354.735,323.205 356.735,323.539 358.5,324.5 Z"/></g>
<g><path style="opacity:0.012" fill="#404546" d="M 146.5,326.5 C 148.19,326.856 149.19,327.856 149.5,329.5C 147.81,329.144 146.81,328.144 146.5,326.5 Z"/></g>
<g><path style="opacity:1" fill="#dddfdf" d="M 328.5,363.5 C 329.935,364.096 331.602,364.096 333.5,363.5C 336.152,363.55 337.152,364.55 336.5,366.5C 338.149,367.148 339.482,368.148 340.5,369.5C 338.174,370.145 336.507,371.478 335.5,373.5C 322.654,376.994 314.488,372.328 311,359.5C 310.616,347.397 310.449,335.397 310.5,323.5C 314.5,323.5 318.5,323.5 322.5,323.5C 322.333,335.505 322.5,347.505 323,359.5C 324.461,361.468 326.295,362.802 328.5,363.5 Z"/></g>
<g><path style="opacity:0.412" fill="#747879" d="M 380.5,323.5 C 379.879,328.602 379.213,333.602 378.5,338.5C 377.892,333.056 378.558,328.056 380.5,323.5 Z"/></g>
<g><path style="opacity:0.982" fill="#e4e5e5" d="M 146.5,326.5 C 146.81,328.144 147.81,329.144 149.5,329.5C 150.995,329.415 151.995,330.081 152.5,331.5C 151.025,333.809 149.358,335.976 147.5,338C 143.661,336.75 139.661,335.584 135.5,334.5C 130.618,334.981 129.451,337.314 132,341.5C 133.876,342.609 135.709,343.609 137.5,344.5C 136.167,344.5 134.833,344.5 133.5,344.5C 134.571,348.058 133.571,351.058 130.5,353.5C 124.252,352.42 120.419,348.753 119,342.5C 117.685,333.632 121.185,327.466 129.5,324C 135.539,322.804 141.205,323.638 146.5,326.5 Z"/></g>
<g><path style="opacity:0.512" fill="#8c9092" d="M 187.5,324.5 C 187.833,324.5 188.167,324.5 188.5,324.5C 188.5,327.833 188.5,331.167 188.5,334.5C 181.5,334.5 174.5,334.5 167.5,334.5C 167.5,337.5 167.5,340.5 167.5,343.5C 173.833,343.5 180.167,343.5 186.5,343.5C 186.815,347.371 186.482,351.038 185.5,354.5C 185.5,351.167 185.5,347.833 185.5,344.5C 179.167,344.5 172.833,344.5 166.5,344.5C 166.5,340.833 166.5,337.167 166.5,333.5C 173.5,333.5 180.5,333.5 187.5,333.5C 187.5,330.5 187.5,327.5 187.5,324.5 Z"/></g>
<g><path style="opacity:1" fill="#e9eaea" d="M 336.5,324.5 C 339.833,324.5 343.167,324.5 346.5,324.5C 346.5,336.5 346.5,348.5 346.5,360.5C 345.745,367.258 342.079,371.591 335.5,373.5C 336.507,371.478 338.174,370.145 340.5,369.5C 339.482,368.148 338.149,367.148 336.5,366.5C 337.152,364.55 336.152,363.55 333.5,363.5C 333.5,363.167 333.5,362.833 333.5,362.5C 333.5,362.167 333.5,361.833 333.5,361.5C 335.912,361.306 336.912,359.973 336.5,357.5C 335.781,346.467 335.781,335.467 336.5,324.5 Z"/></g>
<g><path style="opacity:1" fill="#f4f6f5" d="M 210.5,333.5 C 207.941,333.198 205.607,333.532 203.5,334.5C 202.515,338.634 202.182,342.968 202.5,347.5C 205.059,347.802 207.393,347.468 209.5,346.5C 210.833,346.5 212.167,346.5 213.5,346.5C 215.527,346.338 217.527,346.505 219.5,347C 218.833,348.333 217.833,349.333 216.5,350C 219.129,351.849 219.629,354.015 218,356.5C 215.079,355.982 212.579,356.982 210.5,359.5C 210.5,358.167 210.5,356.833 210.5,355.5C 208.265,355.205 206.265,355.539 204.5,356.5C 203.586,359.728 203.253,363.061 203.5,366.5C 203.5,368.833 203.5,371.167 203.5,373.5C 200.167,373.5 196.833,373.5 193.5,373.5C 193.799,365.747 193.466,358.08 192.5,350.5C 192.98,342.807 194.314,335.14 196.5,327.5C 198.326,325.219 200.326,325.219 202.5,327.5C 203.167,329.167 203.833,330.833 204.5,332.5C 206.323,331.253 208.323,330.586 210.5,330.5C 210.5,331.5 210.5,332.5 210.5,333.5 Z"/></g>
<g><path style="opacity:0.98" fill="#e1e3e4" d="M 210.5,359.5 C 212.579,356.982 215.079,355.982 218,356.5C 219.629,354.015 219.129,351.849 216.5,350C 217.833,349.333 218.833,348.333 219.5,347C 217.527,346.505 215.527,346.338 213.5,346.5C 217.93,343.591 218.597,339.924 215.5,335.5C 214.365,333.787 212.698,333.12 210.5,333.5C 210.5,332.5 210.5,331.5 210.5,330.5C 208.323,330.586 206.323,331.253 204.5,332.5C 203.833,330.833 203.167,329.167 202.5,327.5C 200.326,325.219 198.326,325.219 196.5,327.5C 194.314,335.14 192.98,342.807 192.5,350.5C 192.448,341.482 192.782,332.482 193.5,323.5C 201.507,323.334 209.507,323.5 217.5,324C 227.559,329.351 230.726,337.518 227,348.5C 225.654,351.591 223.488,353.924 220.5,355.5C 223.541,361.755 227.208,367.588 231.5,373C 227.163,373.752 222.829,374.086 218.5,374C 215.604,369.277 212.938,364.443 210.5,359.5 Z M 203.5,334.5 C 207.566,334.307 211.566,334.64 215.5,335.5C 218.597,339.924 217.93,343.591 213.5,346.5C 212.167,346.5 210.833,346.5 209.5,346.5C 207.5,346.5 205.5,346.5 203.5,346.5C 203.5,342.5 203.5,338.5 203.5,334.5 Z"/></g>
<g><path style="opacity:0.478" fill="#919391" d="M 203.5,334.5 C 205.607,333.532 207.941,333.198 210.5,333.5C 212.698,333.12 214.365,333.787 215.5,335.5C 211.566,334.64 207.566,334.307 203.5,334.5 Z"/></g>
<g><path style="opacity:0.647" fill="#aaacad" d="M 203.5,334.5 C 203.5,338.5 203.5,342.5 203.5,346.5C 205.5,346.5 207.5,346.5 209.5,346.5C 207.393,347.468 205.059,347.802 202.5,347.5C 202.182,342.968 202.515,338.634 203.5,334.5 Z"/></g>
<g><path style="opacity:0.986" fill="#bcbfc2" d="M 235.5,323.5 C 233.369,324.314 231.036,324.814 228.5,325C 232.705,325.496 233.371,327.163 230.5,330C 231.415,333.169 233.082,335.836 235.5,338C 235.043,338.414 234.709,338.914 234.5,339.5C 236.078,340.298 237.744,340.798 239.5,341C 235.745,342.541 234.745,345.041 236.5,348.5C 233.099,340.388 230.099,332.055 227.5,323.5C 230.167,323.5 232.833,323.5 235.5,323.5 Z"/></g>
<g><path style="opacity:0.99" fill="#e6e8e8" d="M 358.5,324.5 C 365.911,331.087 372.077,338.753 377,347.5C 377.383,346.944 377.883,346.611 378.5,346.5C 378.5,347.5 378.5,348.5 378.5,349.5C 379.873,349.343 381.207,349.51 382.5,350C 380.995,352.67 378.995,354.836 376.5,356.5C 377.714,358.069 379.381,358.902 381.5,359C 381.167,359.333 380.833,359.667 380.5,360C 382.158,360.725 382.658,361.892 382,363.5C 381.667,362.833 381.333,362.167 381,361.5C 381.319,363.743 381.152,365.91 380.5,368C 383.741,368.495 384.741,369.995 383.5,372.5C 382.609,371.89 381.609,371.557 380.5,371.5C 374.998,363.162 369.498,354.828 364,346.5C 363.5,355.827 363.334,365.161 363.5,374.5C 359.818,374.665 356.152,374.499 352.5,374C 352.043,373.586 351.709,373.086 351.5,372.5C 352.468,361.211 353.135,349.877 353.5,338.5C 353.5,333.833 353.5,329.167 353.5,324.5C 355.167,324.5 356.833,324.5 358.5,324.5 Z"/></g>
<g><path style="opacity:0.473" fill="#9d9ea1" d="M 336.5,324.5 C 339.962,323.518 343.629,323.185 347.5,323.5C 347.829,336.011 347.495,348.345 346.5,360.5C 346.5,348.5 346.5,336.5 346.5,324.5C 343.167,324.5 339.833,324.5 336.5,324.5 Z"/></g>
<g><path style="opacity:0.024" fill="#4b4d4d" d="M 283.5,341.5 C 283.833,341.5 284.167,341.5 284.5,341.5C 284.163,345.011 284.163,348.344 284.5,351.5C 283.523,354.287 283.19,357.287 283.5,360.5C 282.23,354.296 282.23,347.963 283.5,341.5 Z"/></g>
<g><path style="opacity:0.988" fill="#e9eded" d="M 283.5,341.5 C 282.23,347.963 282.23,354.296 283.5,360.5C 283.5,361.833 283.5,363.167 283.5,364.5C 282.989,367.963 281.989,371.296 280.5,374.5C 279.833,374.5 279.167,374.5 278.5,374.5C 276.735,373.539 274.735,373.205 272.5,373.5C 272.5,363.833 272.5,354.167 272.5,344.5C 272.5,337.5 272.5,330.5 272.5,323.5C 276.167,323.5 279.833,323.5 283.5,323.5C 283.5,329.5 283.5,335.5 283.5,341.5 Z"/></g>
<g><path style="opacity:1" fill="#f5f9f8" d="M 380.5,323.5 C 383.167,323.5 385.833,323.5 388.5,323.5C 388.5,340.167 388.5,356.833 388.5,373.5C 386.708,373.634 385.042,373.301 383.5,372.5C 384.741,369.995 383.741,368.495 380.5,368C 381.152,365.91 381.319,363.743 381,361.5C 381.333,362.167 381.667,362.833 382,363.5C 382.658,361.892 382.158,360.725 380.5,360C 380.833,359.667 381.167,359.333 381.5,359C 379.381,358.902 377.714,358.069 376.5,356.5C 378.995,354.836 380.995,352.67 382.5,350C 381.207,349.51 379.873,349.343 378.5,349.5C 378.5,348.5 378.5,347.5 378.5,346.5C 378.5,343.833 378.5,341.167 378.5,338.5C 379.213,333.602 379.879,328.602 380.5,323.5 Z"/></g>
<g><path style="opacity:1" fill="#edeeef" d="M 295.5,349.5 C 299.747,355.656 303.747,361.99 307.5,368.5C 307.833,369.5 308.5,370.167 309.5,370.5C 310.167,370.5 310.5,370.833 310.5,371.5C 308.365,373.369 305.698,374.036 302.5,373.5C 300.712,373.785 299.045,373.452 297.5,372.5C 292.744,365.748 288.41,358.748 284.5,351.5C 284.163,348.344 284.163,345.011 284.5,341.5C 287.228,338.101 289.561,334.434 291.5,330.5C 294.441,329.18 297.441,327.847 300.5,326.5C 301.553,327.438 302.22,328.605 302.5,330C 298.814,333.811 296.147,337.977 294.5,342.5C 294.167,343.667 293.833,344.833 293.5,346C 293.608,347.681 294.275,348.848 295.5,349.5 Z"/></g>
<g><path style="opacity:0.388" fill="#858588" d="M 130.5,353.5 C 132.527,353.338 134.527,353.505 136.5,354C 137.056,354.383 137.389,354.883 137.5,355.5C 134.99,355.073 132.657,354.407 130.5,353.5 Z"/></g>
<g><path style="opacity:0.3" fill="#575a5c" d="M 388.5,323.5 C 389.497,340.325 389.83,357.325 389.5,374.5C 385.845,375.075 382.845,374.075 380.5,371.5C 381.609,371.557 382.609,371.89 383.5,372.5C 385.042,373.301 386.708,373.634 388.5,373.5C 388.5,356.833 388.5,340.167 388.5,323.5 Z"/></g>
<g><path style="opacity:0.643" fill="#909192" d="M 204.5,356.5 C 206.265,355.539 208.265,355.205 210.5,355.5C 210.5,356.833 210.5,358.167 210.5,359.5C 209.596,358.791 209.263,357.791 209.5,356.5C 207.833,356.5 206.167,356.5 204.5,356.5 Z"/></g>
<g><path style="opacity:0.994" fill="#e6e9ea" d="M 235.5,323.5 C 236.5,323.5 237.5,323.5 238.5,323.5C 238.229,325.38 238.896,326.713 240.5,327.5C 243.788,335.641 246.622,343.974 249,352.5C 249.333,352.833 249.667,353.167 250,353.5C 250.198,351.618 250.698,349.952 251.5,348.5C 252.117,348.389 252.617,348.056 253,347.5C 253.495,345.527 253.662,343.527 253.5,341.5C 255.172,336.115 256.838,330.781 258.5,325.5C 262.078,324.411 265.745,324.245 269.5,325C 267.984,326.897 267.317,329.064 267.5,331.5C 263.777,345.735 259.444,359.735 254.5,373.5C 251.291,374.787 248.125,374.787 245,373.5C 241.462,365.386 238.629,357.052 236.5,348.5C 234.745,345.041 235.745,342.541 239.5,341C 237.744,340.798 236.078,340.298 234.5,339.5C 234.709,338.914 235.043,338.414 235.5,338C 233.082,335.836 231.415,333.169 230.5,330C 233.371,327.163 232.705,325.496 228.5,325C 231.036,324.814 233.369,324.314 235.5,323.5 Z"/></g>
<g><path style="opacity:0.686" fill="#919697" d="M 253.5,341.5 C 253.662,343.527 253.495,345.527 253,347.5C 252.617,348.056 252.117,348.389 251.5,348.5C 251.927,345.99 252.593,343.657 253.5,341.5 Z"/></g>
<g><path style="opacity:0.051" fill="#292830" d="M 336.5,357.5 C 336.912,359.973 335.912,361.306 333.5,361.5C 334.512,360.128 335.512,358.795 336.5,357.5 Z"/></g>
<g><path style="opacity:0.055" fill="#272f30" d="M 120.5,362.5 C 120.167,363.5 119.5,364.167 118.5,364.5C 118.5,363.167 119.167,362.5 120.5,362.5 Z"/></g>
<g><path style="opacity:0.043" fill="#262627" d="M 167.5,354.5 C 167.5,357.167 167.5,359.833 167.5,362.5C 174.687,362.175 181.687,362.509 188.5,363.5C 181.167,363.5 173.833,363.5 166.5,363.5C 166.19,360.287 166.523,357.287 167.5,354.5 Z"/></g>
<g><path style="opacity:0.027" fill="#3e3f3f" d="M 333.5,362.5 C 333.5,362.833 333.5,363.167 333.5,363.5C 331.602,364.096 329.935,364.096 328.5,363.5C 330.042,362.699 331.708,362.366 333.5,362.5 Z"/></g>
<g><path style="opacity:1" fill="#e9ebec" d="M 137.5,344.5 C 151.174,346.641 155.674,354.308 151,367.5C 149.242,369.765 147.075,371.432 144.5,372.5C 141.572,372.565 138.905,373.232 136.5,374.5C 128.054,375.077 121.054,372.244 115.5,366C 116.244,364.961 117.244,364.461 118.5,364.5C 119.5,364.167 120.167,363.5 120.5,362.5C 123.05,358.676 126.05,358.509 129.5,362C 132.432,362.953 135.432,363.453 138.5,363.5C 140.179,363.715 141.179,363.048 141.5,361.5C 142.402,358.347 141.069,356.347 137.5,355.5C 137.389,354.883 137.056,354.383 136.5,354C 134.527,353.505 132.527,353.338 130.5,353.5C 133.571,351.058 134.571,348.058 133.5,344.5C 134.833,344.5 136.167,344.5 137.5,344.5 Z"/></g>
<g><path style="opacity:0.525" fill="#636a6a" d="M 141.5,361.5 C 141.179,363.048 140.179,363.715 138.5,363.5C 139.29,362.599 140.29,361.932 141.5,361.5 Z"/></g>
<g><path style="opacity:0.055" fill="#404142" d="M 272.5,344.5 C 272.5,354.167 272.5,363.833 272.5,373.5C 274.735,373.205 276.735,373.539 278.5,374.5C 276.167,374.5 273.833,374.5 271.5,374.5C 271.173,364.319 271.506,354.319 272.5,344.5 Z"/></g>
<g><path style="opacity:0.004" fill="#232323" d="M 307.5,368.5 C 308.833,368.5 309.5,369.167 309.5,370.5C 308.5,370.167 307.833,369.5 307.5,368.5 Z"/></g>
<g><path style="opacity:0.027" fill="#5d5f5f" d="M 144.5,372.5 C 142.162,374.04 139.495,374.706 136.5,374.5C 138.905,373.232 141.572,372.565 144.5,372.5 Z"/></g>
<g><path style="opacity:0.05" fill="#505253" d="M 188.5,324.5 C 188.167,324.5 187.833,324.5 187.5,324.5C 177.5,324.5 167.5,324.5 157.5,324.5C 157.5,340.833 157.5,357.167 157.5,373.5C 167.833,373.5 178.167,373.5 188.5,373.5C 178.013,374.494 167.346,374.828 156.5,374.5C 156.5,357.5 156.5,340.5 156.5,323.5C 167.346,323.172 178.013,323.506 188.5,324.5 Z"/></g>
<g><path style="opacity:0.149" fill="#5a5b5d" d="M 203.5,366.5 C 204.473,368.948 204.806,371.615 204.5,374.5C 200.629,374.815 196.962,374.482 193.5,373.5C 196.833,373.5 200.167,373.5 203.5,373.5C 203.5,371.167 203.5,368.833 203.5,366.5 Z"/></g>
<g><path style="opacity:0.267" fill="#62676b" d="M 283.5,364.5 C 283.5,367.833 283.5,371.167 283.5,374.5C 282.5,374.5 281.5,374.5 280.5,374.5C 281.989,371.296 282.989,367.963 283.5,364.5 Z"/></g>
<g><path style="opacity:0.035" fill="#4e4e4e" d="M 310.5,371.5 C 311.404,372.209 311.737,373.209 311.5,374.5C 308.287,374.81 305.287,374.477 302.5,373.5C 305.698,374.036 308.365,373.369 310.5,371.5 Z"/></g>
</svg>
