<?xml version="1.0" standalone="no"?>
<!DOCTYPE svg PUBLIC "-//W3C//DTD SVG 20010904//EN"
 "http://www.w3.org/TR/2001/REC-SVG-20010904/DTD/svg10.dtd">
<svg version="1.0" xmlns="http://www.w3.org/2000/svg"
 width="500.000000pt" height="500.000000pt" viewBox="0 0 500.000000 500.000000"
 preserveAspectRatio="xMidYMid meet">

<g transform="translate(0.000000,500.000000) scale(0.100000,-0.100000)"
fill="#000000" stroke="none">
<path d="M1273 3890 c-17 -10 -37 -28 -42 -39 -47 -88 67 -201 147 -145 26 18
52 65 52 94 0 37 -30 81 -65 96 -45 18 -54 18 -92 -6z m77 -65 c18 -21 5 -45
-25 -45 -14 0 -28 7 -31 15 -7 17 12 45 31 45 7 0 18 -7 25 -15z"/>
<path d="M3745 3903 c-40 -10 -85 -69 -85 -112 0 -36 50 -82 95 -88 35 -4 46
-1 74 23 44 37 54 66 37 109 -20 48 -75 79 -121 68z m43 -101 c2 -7 -6 -12
-17 -12 -21 0 -27 11 -14 24 9 9 26 2 31 -12z"/>
<path d="M2866 3869 c-58 -68 -15 -169 72 -169 93 0 134 109 67 176 -18 18
-35 24 -69 24 -37 0 -48 -5 -70 -31z m79 -59 c3 -5 1 -10 -4 -10 -6 0 -11 5
-11 10 0 6 2 10 4 10 3 0 8 -4 11 -10z"/>
<path d="M3198 3882 l-58 -3 0 -649 c0 -623 1 -652 20 -702 26 -69 120 -165
170 -174 19 -4 45 -14 57 -22 16 -10 44 -13 96 -11 97 5 186 48 255 124 84 91
82 76 82 657 l0 508 -60 0 -59 0 -3 -513 -3 -513 -25 -38 c-75 -111 -235 -140
-329 -60 -81 70 -75 20 -81 749 l-5 650 -57 -3z"/>
<path d="M1550 3866 c0 -7 3 -33 6 -57 l6 -44 587 0 586 0 3 58 3 57 -596 0
c-495 0 -595 -2 -595 -14z"/>
<path d="M3420 3266 c0 -419 3 -623 11 -645 10 -29 14 -31 60 -31 l49 0 0 645
0 645 -60 0 -60 0 0 -614z"/>
<path d="M1536 3616 c-70 -24 -156 -98 -189 -160 -42 -80 -48 -110 -50 -221
-1 -94 2 -119 22 -170 33 -81 124 -173 217 -217 l69 -33 320 0 c318 0 320 0
353 -23 20 -15 32 -32 32 -46 0 -52 7 -51 -556 -47 l-524 3 0 -61 0 -61 463 1
c254 1 488 -2 519 -6 42 -5 69 -3 108 10 138 46 148 241 15 314 -26 14 -79 17
-360 21 l-330 5 -56 26 c-235 110 -248 433 -22 545 l58 29 550 0 550 0 3 58 3
57 -568 -1 c-553 -1 -570 -2 -627 -23z"/>
<path d="M2870 2975 l0 -625 60 0 60 0 0 625 0 625 -60 0 -60 0 0 -625z"/>
<path d="M1665 3385 c-22 -8 -41 -15 -42 -15 -2 0 -13 -17 -26 -37 -51 -82
-41 -169 25 -229 70 -63 74 -64 410 -64 216 0 315 -3 346 -12 67 -20 146 -92
184 -168 29 -56 33 -75 33 -140 0 -92 -16 -130 -85 -194 -88 -82 -48 -78 -701
-70 l-579 7 0 -61 0 -62 433 -2 c827 -5 763 -7 832 27 125 62 191 155 217 303
23 135 -22 263 -131 373 -106 107 -114 109 -504 109 -347 0 -361 2 -385 53
-17 36 -8 63 26 74 15 5 232 5 504 0 263 -5 485 -7 493 -3 11 4 15 21 15 59
l0 54 -142 6 c-79 2 -309 5 -513 6 -301 0 -377 -2 -410 -14z"/>
<path d="M3733 2245 c-34 -14 -73 -67 -73 -98 0 -54 59 -107 119 -107 43 0
101 57 101 99 0 44 -25 88 -60 106 -35 18 -46 18 -87 0z m67 -90 c0 -20 -5
-25 -24 -25 -14 0 -28 5 -31 10 -12 19 4 40 30 40 20 0 25 -5 25 -25z"/>
<path d="M1267 2239 c-23 -13 -47 -62 -47 -94 0 -88 110 -140 173 -81 70 65
23 187 -73 186 -19 0 -43 -5 -53 -11z m83 -84 c6 -8 9 -19 5 -25 -14 -23 -62
-2 -52 24 8 20 31 21 47 1z"/>
<path d="M2599 2227 c-96 -64 4 -228 106 -173 32 17 55 52 55 82 0 25 -39 93
-59 104 -31 16 -65 12 -102 -13z m81 -77 c0 -5 -9 -10 -20 -10 -11 0 -20 5
-20 10 0 6 9 10 20 10 11 0 20 -4 20 -10z"/>
<path d="M2910 2243 c-38 -14 -52 -79 -30 -137 9 -24 15 -26 65 -26 l55 0 0
68 c0 37 -4 72 -8 78 -9 14 -61 25 -82 17z"/>
<path d="M1548 2141 l4 -59 444 2 444 1 0 57 0 58 -447 0 -448 0 3 -59z"/>
<path d="M3146 2169 c-3 -17 -6 -44 -6 -60 l0 -29 200 0 200 0 0 53 0 54 -97
6 c-54 4 -141 7 -194 7 l-96 0 -7 -31z"/>
<path d="M2769 1753 l-26 -4 -6 -136 c-4 -75 -7 -185 -7 -245 l0 -108 50 0 50
0 -2 247 c-3 269 0 255 -59 246z"/>
<path d="M3025 1753 c-24 -3 -48 -13 -60 -26 -36 -38 -113 -163 -119 -193 -6
-30 4 -48 109 -211 l40 -62 58 -1 58 0 -52 78 c-28 42 -67 100 -87 129 -19 29
-32 58 -29 66 3 7 37 59 76 115 39 56 71 104 71 107 0 3 -6 4 -12 3 -7 -1 -31
-3 -53 -5z"/>
<path d="M3828 1753 l-27 -4 -3 -135 -3 -134 -49 67 c-130 180 -152 203 -188
203 -17 0 -18 -17 -18 -245 l0 -245 51 0 52 0 -5 145 c-2 80 -3 145 -2 145 2
0 29 -37 60 -82 32 -46 69 -97 83 -114 14 -17 34 -45 43 -63 12 -22 24 -31 43
-31 l25 0 0 250 c0 276 6 253 -62 243z"/>
<path d="M1276 1727 c-128 -73 -81 -246 74 -271 20 -3 49 -15 63 -26 23 -18
25 -24 15 -45 -6 -14 -20 -27 -30 -31 -27 -8 -87 4 -124 25 l-31 18 -32 -33
c-18 -18 -30 -38 -26 -44 23 -38 154 -70 229 -56 81 15 127 94 103 177 -15 51
-48 77 -131 103 -66 21 -94 52 -76 85 6 12 21 23 35 27 28 7 88 -11 105 -31
11 -13 17 -10 41 17 26 30 27 34 12 50 -27 30 -97 58 -144 58 -27 0 -59 -9
-83 -23z"/>
<path d="M1576 1644 c-4 -58 -4 -169 0 -245 l7 -139 153 0 154 0 0 44 c0 36
-4 46 -20 51 -11 3 -25 3 -31 0 -5 -4 -46 -4 -90 0 l-79 7 0 50 0 50 93 -3 92
-4 3 48 3 47 -95 0 -96 0 0 55 0 55 105 0 105 0 0 45 0 45 -149 0 -148 0 -7
-106z"/>
<path d="M1940 1505 l0 -245 50 0 50 0 0 85 c0 82 1 85 25 91 14 4 27 5 29 3
3 -4 59 -107 83 -151 13 -26 19 -28 75 -28 l60 0 -24 33 c-13 17 -39 58 -57
89 l-32 58 35 33 c19 18 38 45 42 61 11 46 -1 121 -26 156 -34 48 -73 60 -200
60 l-110 0 0 -245z m210 145 c28 -15 42 -47 35 -80 -5 -23 -14 -32 -43 -40
-20 -5 -53 -10 -73 -10 l-35 0 3 68 c1 37 3 68 3 70 1 7 94 0 110 -8z"/>
<path d="M2295 1733 c4 -10 42 -119 84 -243 l78 -225 41 -3 c38 -3 41 -1 51
30 5 18 21 65 34 103 14 39 45 134 70 213 l45 143 -51 -3 -51 -3 -33 -105
c-18 -58 -39 -133 -45 -167 -12 -59 -28 -85 -28 -45 0 17 -69 238 -91 295 -10
24 -16 27 -61 27 -44 0 -49 -2 -43 -17z"/>
<path d="M3124 1563 c1 -217 8 -239 87 -283 90 -50 191 -24 238 61 19 33 21
54 21 223 l0 187 -47 -3 -48 -3 0 -173 0 -174 -28 -24 c-34 -29 -67 -31 -98
-5 -23 19 -24 24 -27 200 l-3 181 -49 0 -48 0 2 -187z"/>
</g>
</svg>
